<svg width="51" height="51" viewBox="0 0 51 51" fill="none" xmlns="http://www.w3.org/2000/svg">
<g clip-path="url(#clip0)">
<path d="M8.65771 37.6362C5.83066 37.6362 3.53076 39.9362 3.53076 42.7632C3.53076 45.5901 5.83066 47.8901 8.65771 47.8901C11.4848 47.8901 13.7847 45.5901 13.7847 42.7632C13.7847 39.9362 11.4848 37.6362 8.65771 37.6362ZM8.65771 46.4253C6.63838 46.4253 4.99561 44.7825 4.99561 42.7632C4.99561 40.7438 6.63838 39.1011 8.65771 39.1011C10.6771 39.1011 12.3198 40.7438 12.3198 42.7632C12.3198 44.7825 10.6771 46.4253 8.65771 46.4253Z" fill="#F08A6B"/>
<path d="M8.65771 40.5659C7.44609 40.5659 6.46045 41.5517 6.46045 42.7632C6.46045 43.9747 7.44609 44.9604 8.65771 44.9604C9.86934 44.9604 10.855 43.9747 10.855 42.7632C10.855 41.5517 9.86934 40.5659 8.65771 40.5659ZM8.65771 43.4956C8.25381 43.4956 7.92529 43.1671 7.92529 42.7632C7.92529 42.3593 8.25381 42.0308 8.65771 42.0308C9.06162 42.0308 9.39014 42.3593 9.39014 42.7632C9.39014 43.1671 9.06162 43.4956 8.65771 43.4956Z" fill="#F08A6B"/>
<path d="M45.4741 3.74951C43.5985 3.74951 41.8739 4.77256 40.973 6.41992L40.0319 8.14404H18.9116C18.5071 8.14404 18.1792 8.47188 18.1792 8.87646C18.1792 9.28105 18.5071 9.60889 18.9116 9.60889H39.2323L28.5227 29.2286C28.3987 29.4556 28.4037 29.7311 28.5356 29.9533C28.6676 30.1757 28.9069 30.312 29.1655 30.312C34.4157 30.312 38.687 34.5833 38.687 39.8335C38.687 45.0837 34.4157 49.355 29.1655 49.355H13.2814C15.3554 47.8959 16.7144 45.4859 16.7144 42.7632V8.87646C16.7144 4.43408 13.1002 0.819824 8.65771 0.819824C4.21523 0.819824 0.601074 4.43408 0.601074 8.87646V42.7632C0.601074 47.2056 4.21523 50.8198 8.65771 50.8198H29.1655C34.0291 50.8198 38.1646 47.6434 39.6063 43.2558C39.608 43.2563 50.3472 10.4736 50.3472 10.4736C50.5156 9.95928 50.6011 9.42197 50.6011 8.87646C50.6011 6.04951 48.3012 3.74951 45.4741 3.74951ZM2.06592 8.87646C2.06592 5.2417 5.02295 2.28467 8.65771 2.28467C12.2925 2.28467 15.2495 5.2417 15.2495 8.87646V38.1395C13.7904 36.0656 11.3805 34.7065 8.65771 34.7065C5.93496 34.7065 3.525 36.0656 2.06592 38.1395V8.87646ZM2.06592 42.7632C2.06592 39.1284 5.02295 36.1714 8.65771 36.1714C12.2925 36.1714 15.2495 39.1284 15.2495 42.7632C15.2495 46.3979 12.2925 49.355 8.65771 49.355C5.02295 49.355 2.06592 46.3979 2.06592 42.7632ZM48.9552 10.0177L39.9221 37.5922C38.9637 32.9873 35.114 29.4297 30.3643 28.9121L42.2585 7.12227C42.9021 5.94541 44.1343 5.21436 45.4741 5.21436C47.4935 5.21436 49.1362 6.85713 49.1362 8.87646C49.1362 9.26689 49.0753 9.65088 48.9552 10.0177Z" fill="#F08A6B"/>
</g>
<defs>
<clipPath id="clip0">
<rect width="50" height="50" fill="white" transform="translate(0.601074 0.819824)"/>
</clipPath>
</defs>
</svg>
