<svg width="16" height="16" viewBox="0 0 16 16" fill="none" xmlns="http://www.w3.org/2000/svg">
<g opacity="0.7" clip-path="url(#clip0)">
<path d="M15.3852 5.38465C15.3501 4.58764 15.2212 4.03971 15.0366 3.56491C14.8461 3.06093 14.5531 2.60972 14.1692 2.23462C13.7941 1.85369 13.3399 1.55769 12.8417 1.37019C12.3642 1.18557 11.8191 1.05668 11.0221 1.02154C10.2192 0.983423 9.96426 0.974609 7.92773 0.974609C5.8912 0.974609 5.63629 0.983423 4.83631 1.01856C4.0393 1.0537 3.49136 1.1827 3.01669 1.36722C2.51259 1.55769 2.06138 1.85071 1.68628 2.23462C1.30535 2.60972 1.00946 3.06391 0.821854 3.56205C0.637225 4.03971 0.50834 4.58467 0.473199 5.38167C0.435083 6.18463 0.42627 6.43954 0.42627 8.47607C0.42627 10.5126 0.435083 10.7675 0.470223 11.5675C0.505364 12.3645 0.634364 12.9124 0.818993 13.3872C1.00946 13.8912 1.30535 14.3424 1.68628 14.7175C2.06138 15.0985 2.51557 15.3945 3.01371 15.582C3.49136 15.7666 4.03632 15.8955 4.83345 15.9306C5.63331 15.9659 5.88834 15.9746 7.92487 15.9746C9.9614 15.9746 10.2163 15.9659 11.0163 15.9306C11.8133 15.8955 12.3612 15.7666 12.8359 15.582C13.844 15.1922 14.641 14.3952 15.0307 13.3872C15.2153 12.9096 15.3443 12.3645 15.3794 11.5675C15.4145 10.7675 15.4234 10.5126 15.4234 8.47607C15.4234 6.43954 15.4204 6.18463 15.3852 5.38465ZM14.0345 11.5089C14.0022 12.2415 13.8791 12.637 13.7766 12.9008C13.5245 13.5542 13.0059 14.0729 12.3524 14.3249C12.0887 14.4275 11.6902 14.5505 10.9605 14.5827C10.1694 14.6179 9.93209 14.6266 7.9307 14.6266C5.92932 14.6266 5.68906 14.6179 4.90075 14.5827C4.16819 14.5505 3.7726 14.4275 3.50888 14.3249C3.18369 14.2047 2.88769 14.0143 2.64743 13.7652C2.39836 13.522 2.20789 13.2289 2.0877 12.9037C1.98514 12.64 1.8621 12.2415 1.82993 11.5119C1.79468 10.7207 1.78598 10.4833 1.78598 8.48191C1.78598 6.48052 1.79468 6.24026 1.82993 5.45207C1.8621 4.7195 1.98514 4.32392 2.0877 4.0602C2.20789 3.73489 2.39836 3.439 2.6504 3.19863C2.89352 2.94956 3.18655 2.75909 3.51185 2.63902C3.77558 2.53646 4.17414 2.41341 4.90373 2.38113C5.6949 2.34599 5.93229 2.33718 7.93357 2.33718C9.93793 2.33718 10.1752 2.34599 10.9635 2.38113C11.6961 2.41341 12.0917 2.53646 12.3554 2.63902C12.6806 2.75909 12.9766 2.94956 13.2168 3.19863C13.4659 3.44187 13.6564 3.73489 13.7766 4.0602C13.8791 4.32392 14.0022 4.72237 14.0345 5.45207C14.0696 6.24324 14.0784 6.48052 14.0784 8.48191C14.0784 10.4833 14.0696 10.7177 14.0345 11.5089Z" fill="#34363E"/>
<path d="M7.928 4.6228C5.8007 4.6228 4.07471 6.34868 4.07471 8.4761C4.07471 10.6035 5.8007 12.3294 7.928 12.3294C10.0554 12.3294 11.7813 10.6035 11.7813 8.4761C11.7813 6.34868 10.0554 4.6228 7.928 4.6228ZM7.928 10.9756C6.54791 10.9756 5.42846 9.8563 5.42846 8.4761C5.42846 7.0959 6.54791 5.97656 7.928 5.97656C9.3082 5.97656 10.4275 7.0959 10.4275 8.4761C10.4275 9.8563 9.3082 10.9756 7.928 10.9756Z" fill="#34363E"/>
<path d="M12.8329 4.47043C12.8329 4.9672 12.4301 5.37 11.9333 5.37C11.4365 5.37 11.0337 4.9672 11.0337 4.47043C11.0337 3.97354 11.4365 3.57086 11.9333 3.57086C12.4301 3.57086 12.8329 3.97354 12.8329 4.47043Z" fill="#34363E"/>
</g>
<defs>
<clipPath id="clip0">
<rect width="15" height="15" fill="white" transform="translate(0.399902 0.974609)"/>
</clipPath>
</defs>
</svg>
