<svg width="102" height="55" viewBox="0 0 102 55" fill="none" xmlns="http://www.w3.org/2000/svg">
<path d="M3.46084 47.4071C3.7035 47.4725 3.96484 47.5285 4.24484 47.5751C4.52484 47.6125 4.83284 47.6311 5.16884 47.6311C5.73817 47.6311 6.24217 47.5518 6.68084 47.3931C7.1195 47.2345 7.4835 47.0198 7.77284 46.7491C8.0715 46.4691 8.2955 46.1518 8.44484 45.7971C8.59417 45.4331 8.66884 45.0458 8.66884 44.6351C8.66884 44.2431 8.6035 43.8698 8.47284 43.5151C8.34217 43.1511 8.1415 42.8385 7.87084 42.5771C7.6095 42.3065 7.27817 42.0918 6.87684 41.9331C6.4755 41.7744 6.00417 41.6951 5.46284 41.6951H2.18684V51.4951H3.46084V47.4071ZM3.46084 42.3111H4.93084C5.32284 42.3111 5.66817 42.3811 5.96684 42.5211C6.2655 42.6611 6.51284 42.8478 6.70884 43.0811C6.90484 43.3051 7.0495 43.5618 7.14284 43.8511C7.2455 44.1311 7.29684 44.4111 7.29684 44.6911C7.29684 44.9618 7.25017 45.2371 7.15684 45.5171C7.07284 45.7878 6.93284 46.0351 6.73684 46.2591C6.54084 46.4831 6.2935 46.6651 5.99484 46.8051C5.69617 46.9451 5.33684 47.0151 4.91684 47.0151C4.6275 47.0151 4.3615 47.0058 4.11884 46.9871C3.87617 46.9591 3.65684 46.9078 3.46084 46.8331V42.3111ZM16.6289 48.6111L17.9729 51.4951H19.3309L14.7669 41.6951H14.0669L9.92293 51.4951H10.5669L11.7989 48.6111H16.6289ZM16.3349 47.9811H12.0649L14.0809 43.2631H14.1369L16.3349 47.9811ZM21.4368 51.4951H24.9508C25.5762 51.4951 26.1035 51.4158 26.5328 51.2571C26.9622 51.0891 27.3075 50.8745 27.5688 50.6131C27.8302 50.3518 28.0168 50.0578 28.1288 49.7311C28.2502 49.3951 28.3108 49.0591 28.3108 48.7231C28.3108 48.1911 28.1942 47.7665 27.9608 47.4491C27.7368 47.1318 27.4662 46.8891 27.1488 46.7211C26.8315 46.5531 26.5048 46.4411 26.1688 46.3851C25.8328 46.3291 25.5622 46.2965 25.3568 46.2871V46.2311C25.6835 46.2311 25.9915 46.1705 26.2808 46.0491C26.5702 45.9185 26.8222 45.7551 27.0368 45.5591C27.2608 45.3538 27.4382 45.1205 27.5688 44.8591C27.6995 44.5885 27.7648 44.3038 27.7648 44.0051C27.7648 43.7438 27.7088 43.4778 27.5968 43.2071C27.4848 42.9365 27.3122 42.6891 27.0788 42.4651C26.8548 42.2411 26.5608 42.0591 26.1968 41.9191C25.8422 41.7698 25.4222 41.6951 24.9368 41.6951H21.4368V51.4951ZM22.7108 50.8791V46.5951H24.2508C24.7082 46.5951 25.1048 46.6558 25.4408 46.7771C25.7768 46.8985 26.0522 47.0618 26.2668 47.2671C26.4908 47.4725 26.6542 47.7105 26.7568 47.9811C26.8688 48.2518 26.9248 48.5365 26.9248 48.8351C26.9248 49.1618 26.8642 49.4511 26.7428 49.7031C26.6308 49.9551 26.4768 50.1698 26.2808 50.3471C26.0848 50.5245 25.8515 50.6598 25.5808 50.7531C25.3195 50.8371 25.0395 50.8791 24.7408 50.8791H22.7108ZM22.7108 45.9791V42.3111H24.4188C24.7828 42.3111 25.0908 42.3625 25.3428 42.4651C25.6042 42.5678 25.8142 42.7031 25.9728 42.8711C26.1408 43.0391 26.2622 43.2304 26.3368 43.4451C26.4115 43.6598 26.4488 43.8744 26.4488 44.0891C26.4488 44.3598 26.3928 44.6118 26.2808 44.8451C26.1782 45.0785 26.0288 45.2791 25.8328 45.4471C25.6462 45.6151 25.4268 45.7458 25.1748 45.8391C24.9322 45.9325 24.6708 45.9791 24.3908 45.9791H22.7108ZM31.6796 46.6231H37.5456V51.4951H38.8196V41.6951H37.5456V45.9791H31.6796V41.6951H30.4056V51.4951H31.6796V46.6231ZM41.1971 46.5951C41.1971 47.1178 41.2951 47.6778 41.4911 48.2751C41.6964 48.8631 42.0137 49.4091 42.4431 49.9131C42.8724 50.4171 43.4184 50.8371 44.0811 51.1731C44.7437 51.4998 45.5371 51.6631 46.4611 51.6631C47.0864 51.6631 47.6511 51.5885 48.1551 51.4391C48.6684 51.2805 49.1257 51.0705 49.5271 50.8091C49.9377 50.5478 50.2924 50.2491 50.5911 49.9131C50.8897 49.5678 51.1324 49.2085 51.3191 48.8351C51.5151 48.4525 51.6597 48.0698 51.7531 47.6871C51.8557 47.3045 51.9071 46.9405 51.9071 46.5951C51.9071 46.0725 51.7997 45.5171 51.5851 44.9291C51.3704 44.3318 51.0391 43.7811 50.5911 43.2771C50.1431 42.7731 49.5737 42.3578 48.8831 42.0311C48.2017 41.6951 47.3944 41.5271 46.4611 41.5271C45.5371 41.5271 44.7437 41.6905 44.0811 42.0171C43.4184 42.3438 42.8724 42.7591 42.4431 43.2631C42.0137 43.7578 41.6964 44.3038 41.4911 44.9011C41.2951 45.4985 41.1971 46.0631 41.1971 46.5951ZM42.5691 46.5951C42.5691 45.9418 42.6671 45.3445 42.8631 44.8031C43.0684 44.2525 43.3437 43.7811 43.6891 43.3891C44.0437 42.9971 44.4591 42.6938 44.9351 42.4791C45.4111 42.2551 45.9291 42.1431 46.4891 42.1431C47.0397 42.1431 47.5577 42.2551 48.0431 42.4791C48.5377 42.6938 48.9671 42.9971 49.3311 43.3891C49.7044 43.7811 49.9984 44.2525 50.2131 44.8031C50.4277 45.3445 50.5351 45.9418 50.5351 46.5951C50.5351 47.2485 50.4277 47.8505 50.2131 48.4011C49.9984 48.9425 49.7044 49.4091 49.3311 49.8011C48.9671 50.1931 48.5377 50.5011 48.0431 50.7251C47.5577 50.9398 47.0397 51.0471 46.4891 51.0471C45.9291 51.0471 45.4111 50.9398 44.9351 50.7251C44.4591 50.5011 44.0437 50.1931 43.6891 49.8011C43.3437 49.4091 43.0684 48.9425 42.8631 48.4011C42.6671 47.8505 42.5691 47.2485 42.5691 46.5951ZM54.2904 51.4951H57.8044C58.4297 51.4951 58.957 51.4158 59.3864 51.2571C59.8157 51.0891 60.161 50.8745 60.4224 50.6131C60.6837 50.3518 60.8704 50.0578 60.9824 49.7311C61.1037 49.3951 61.1644 49.0591 61.1644 48.7231C61.1644 48.1911 61.0477 47.7665 60.8144 47.4491C60.5904 47.1318 60.3197 46.8891 60.0024 46.7211C59.685 46.5531 59.3584 46.4411 59.0224 46.3851C58.6864 46.3291 58.4157 46.2965 58.2104 46.2871V46.2311C58.537 46.2311 58.845 46.1705 59.1344 46.0491C59.4237 45.9185 59.6757 45.7551 59.8904 45.5591C60.1144 45.3538 60.2917 45.1205 60.4224 44.8591C60.553 44.5885 60.6184 44.3038 60.6184 44.0051C60.6184 43.7438 60.5624 43.4778 60.4504 43.2071C60.3384 42.9365 60.1657 42.6891 59.9324 42.4651C59.7084 42.2411 59.4144 42.0591 59.0504 41.9191C58.6957 41.7698 58.2757 41.6951 57.7904 41.6951H54.2904V51.4951ZM55.5644 50.8791V46.5951H57.1044C57.5617 46.5951 57.9584 46.6558 58.2944 46.7771C58.6304 46.8985 58.9057 47.0618 59.1204 47.2671C59.3444 47.4725 59.5077 47.7105 59.6104 47.9811C59.7224 48.2518 59.7784 48.5365 59.7784 48.8351C59.7784 49.1618 59.7177 49.4511 59.5964 49.7031C59.4844 49.9551 59.3304 50.1698 59.1344 50.3471C58.9384 50.5245 58.705 50.6598 58.4344 50.7531C58.173 50.8371 57.893 50.8791 57.5944 50.8791H55.5644ZM55.5644 45.9791V42.3111H57.2724C57.6364 42.3111 57.9444 42.3625 58.1964 42.4651C58.4577 42.5678 58.6677 42.7031 58.8264 42.8711C58.9944 43.0391 59.1157 43.2304 59.1904 43.4451C59.265 43.6598 59.3024 43.8744 59.3024 44.0891C59.3024 44.3598 59.2464 44.6118 59.1344 44.8451C59.0317 45.0785 58.8824 45.2791 58.6864 45.4471C58.4997 45.6151 58.2804 45.7458 58.0284 45.8391C57.7857 45.9325 57.5244 45.9791 57.2444 45.9791H55.5644ZM63.2591 41.6951V51.4951H69.5871V50.7251H64.5331V46.6511H68.8731V45.9791H64.5331V42.4651H69.5871V41.6951H63.2591ZM80.095 49.6891C79.143 50.5851 78.0136 51.0331 76.707 51.0331C75.979 51.0331 75.335 50.9071 74.775 50.6551C74.215 50.4031 73.7483 50.0671 73.375 49.6471C73.0016 49.2271 72.717 48.7418 72.521 48.1911C72.3343 47.6405 72.241 47.0665 72.241 46.4691C72.241 45.8345 72.339 45.2558 72.535 44.7331C72.7403 44.2011 73.025 43.7438 73.389 43.3611C73.753 42.9785 74.1823 42.6798 74.677 42.4651C75.181 42.2504 75.727 42.1431 76.315 42.1431C76.7163 42.1431 77.0803 42.1898 77.407 42.2831C77.743 42.3765 78.037 42.4978 78.289 42.6471C78.5503 42.7964 78.7603 42.9691 78.919 43.1651C79.087 43.3518 79.2036 43.5431 79.269 43.7391H80.305C80.165 43.4218 79.983 43.1278 79.759 42.8571C79.5443 42.5865 79.2736 42.3531 78.947 42.1571C78.6203 41.9611 78.2376 41.8071 77.799 41.6951C77.3603 41.5831 76.861 41.5271 76.301 41.5271C75.489 41.5271 74.747 41.6438 74.075 41.8771C73.4123 42.1104 72.843 42.4464 72.367 42.8851C71.891 43.3145 71.5223 43.8371 71.261 44.4531C70.9996 45.0598 70.869 45.7411 70.869 46.4971C70.869 47.1505 70.9716 47.7898 71.177 48.4151C71.3916 49.0311 71.7183 49.5818 72.157 50.0671C72.5956 50.5431 73.1556 50.9305 73.837 51.2291C74.5183 51.5185 75.3303 51.6631 76.273 51.6631C76.8703 51.6631 77.4023 51.6071 77.869 51.4951C78.345 51.3831 78.7556 51.2478 79.101 51.0891C79.4556 50.9211 79.7496 50.7438 79.983 50.5571C80.2163 50.3705 80.3936 50.2071 80.515 50.0671L80.095 49.6891ZM83.8925 50.3471V41.6951H82.6185V51.4951H83.8925L89.7025 42.7451V51.4951H90.9765V41.6951H89.7025L83.8925 50.3471ZM94.3353 41.6951V51.4951H100.663V50.7251H95.6093V46.6511H99.9493V45.9791H95.6093V42.4651H100.663V41.6951H94.3353Z" fill="#F08A6B"/>
<path d="M51.7007 6.76603C51.7981 6.76603 51.8711 6.79037 51.9685 6.79037C52.0172 6.79037 52.0659 6.81471 52.0902 6.81471C52.1389 6.81471 52.1633 6.83906 52.2119 6.83906C52.2363 6.83906 52.285 6.8634 52.3093 6.8634C52.4067 6.88774 52.5041 6.91208 52.6015 6.93643C52.6502 6.93643 52.6745 6.96077 52.7232 6.96077C52.7719 6.96077 52.7962 6.98511 52.8449 7.00945C52.8936 7.0338 52.918 7.0338 52.9667 7.05814C53.0154 7.08248 53.0397 7.08248 53.0884 7.10682C53.1371 7.13117 53.1614 7.13117 53.2101 7.15551C53.2588 7.17985 53.2832 7.17985 53.3319 7.2042C53.3805 7.22854 53.4049 7.22854 53.4536 7.25288C53.5266 7.27722 53.5997 7.32591 53.6727 7.35025C53.7214 7.37459 53.7944 7.39894 53.8431 7.44762C54.0135 7.54499 54.184 7.64236 54.33 7.73973C54.4761 7.8371 54.5978 7.93447 54.7439 8.03184C54.7926 8.08053 54.8413 8.10487 54.89 8.15356C54.963 8.20224 55.0361 8.27527 55.0847 8.32396C55.1578 8.39698 55.2308 8.47001 55.3039 8.54304C55.3282 8.56738 55.3282 8.56738 55.3525 8.59172C55.3769 8.61607 55.4012 8.64041 55.4012 8.64041C55.4256 8.6891 55.4743 8.71344 55.4986 8.76212C55.523 8.81081 55.5717 8.83515 55.596 8.88384C55.669 8.95686 55.7177 9.02989 55.7908 9.12726C55.8151 9.15161 55.8395 9.20029 55.8638 9.22463C55.9125 9.27332 55.9368 9.34635 55.9855 9.39503C56.0099 9.44372 56.0342 9.46806 56.0586 9.51675C56.0829 9.56543 56.1073 9.58977 56.1316 9.63846C56.156 9.68714 56.1803 9.71149 56.2046 9.76017C56.2533 9.8332 56.302 9.90623 56.3264 10.0036C56.3507 10.0523 56.3751 10.0766 56.3994 10.1253C56.4238 10.174 56.4481 10.1983 56.4481 10.247C56.4724 10.2714 56.4724 10.3201 56.4968 10.3444C56.4968 10.3444 56.4968 10.3687 56.5211 10.3687C56.5455 10.4174 56.5698 10.4418 56.5698 10.4905C56.5942 10.5391 56.5942 10.5635 56.6185 10.6122C56.6672 10.7339 56.7159 10.8799 56.7646 11.0016C56.7646 11.026 56.7646 11.026 56.7889 11.0503C56.8133 11.1234 56.8376 11.172 56.8376 11.2451C56.9837 11.7563 57.0567 12.2675 57.0567 12.8273C57.0567 13.5089 56.935 14.1662 56.7402 14.7991C56.6429 15.0912 56.5211 15.3833 56.3751 15.6754C56.3507 15.7241 56.3264 15.7485 56.302 15.7971C55.2308 16.4301 54.0379 16.8926 52.7719 17.0873C51.9685 15.9432 51.4085 14.6774 51.1164 13.3872C50.8242 14.7017 50.2643 15.9675 49.4609 17.1116C48.1949 16.8926 47.002 16.4544 45.9308 15.8215C45.9064 15.7728 45.8821 15.7485 45.8577 15.6998C45.8334 15.6511 45.809 15.6267 45.7847 15.5781C45.7603 15.5294 45.736 15.505 45.736 15.4563C45.7116 15.4077 45.6873 15.3833 45.6873 15.3346C45.663 15.2859 45.663 15.2616 45.6386 15.2129C45.6143 15.1399 45.5656 15.0425 45.5412 14.9695C45.5169 14.9208 45.5169 14.8721 45.4925 14.8478C45.4682 14.7991 45.4438 14.7504 45.4438 14.6774C45.4438 14.6774 45.4438 14.6774 45.4438 14.653C45.4438 14.6287 45.4438 14.6287 45.4195 14.6044C45.3951 14.5557 45.3952 14.5313 45.3952 14.4826C45.3952 14.434 45.3708 14.4096 45.3708 14.3609C45.3465 14.2636 45.3221 14.1905 45.2978 14.0932C45.2978 14.0688 45.2734 14.0201 45.2734 13.9958C45.2734 13.9471 45.2491 13.9228 45.2491 13.8741C45.2491 13.8254 45.2247 13.801 45.2247 13.7524C45.2247 13.7037 45.2004 13.6793 45.2004 13.6306C45.2004 13.6063 45.2004 13.5576 45.2004 13.5333C45.2004 13.5333 45.2004 13.5333 45.2004 13.5089C45.2004 13.5089 45.2004 13.5089 45.2004 13.4846C45.2004 13.4116 45.176 13.3142 45.176 13.2412C45.176 13.1925 45.176 13.1438 45.176 13.1195V13.0951C45.176 13.0221 45.176 12.9247 45.176 12.8517C45.176 12.8273 45.176 12.8273 45.176 12.803C45.176 12.6569 45.176 12.5352 45.2004 12.3892C45.2004 12.3405 45.2004 12.2918 45.2247 12.2431C45.2247 12.1214 45.2491 11.9997 45.2734 11.9023C45.2734 11.8536 45.2978 11.805 45.2978 11.7319C45.2978 11.6832 45.3221 11.6102 45.3221 11.5615C45.3465 11.4398 45.3708 11.3424 45.3952 11.2207C45.4195 11.099 45.4682 11.0016 45.4925 10.8799C45.5169 10.8312 45.5169 10.7826 45.5412 10.7339C45.5412 10.7095 45.5656 10.6852 45.5656 10.6852C45.5899 10.6365 45.6143 10.5878 45.6386 10.5391C45.663 10.4905 45.6873 10.4418 45.7116 10.3931C45.736 10.3687 45.736 10.3444 45.7603 10.2957C45.7847 10.2714 45.7847 10.2227 45.809 10.1983C45.8334 10.1253 45.8821 10.0766 45.9064 10.0279C45.9308 9.97926 45.9794 9.90623 46.0038 9.85754C46.0281 9.80886 46.0525 9.78451 46.0768 9.73583C46.1255 9.6628 46.1742 9.58977 46.2229 9.51675C46.2472 9.46806 46.2716 9.44372 46.2959 9.41937C46.3203 9.39503 46.3446 9.37069 46.3446 9.34635C46.369 9.29766 46.4177 9.24898 46.442 9.20029C46.4907 9.12726 46.5637 9.05424 46.6124 8.98121C46.7342 8.83515 46.8559 8.71344 46.9776 8.59172C47.002 8.56738 47.0263 8.54304 47.0263 8.54304C47.0507 8.5187 47.075 8.49435 47.075 8.49435C47.1237 8.44567 47.148 8.42133 47.1967 8.37264C47.2454 8.3483 47.2698 8.29961 47.3185 8.27527C47.3672 8.22659 47.4158 8.20224 47.4645 8.1779C47.4889 8.15356 47.5132 8.15356 47.5376 8.12922C47.5376 8.12922 47.5619 8.12922 47.5619 8.10487C47.6106 8.08053 47.635 8.05619 47.6836 8.0075C47.7323 7.95882 47.8054 7.93447 47.8541 7.88579C47.9028 7.86145 47.9271 7.8371 47.9758 7.81276L48.0001 7.78842C48.0732 7.73973 48.1462 7.69105 48.2436 7.64236C48.2923 7.61802 48.3166 7.59368 48.3653 7.56933C48.414 7.54499 48.4627 7.52065 48.5114 7.49631C48.5601 7.47196 48.6088 7.44762 48.6575 7.42328C48.7062 7.39894 48.7549 7.37459 48.8036 7.35025C48.8522 7.32591 48.9009 7.30157 48.9496 7.30157H48.974C49.0227 7.27722 49.0957 7.25288 49.1444 7.25288C49.1931 7.22854 49.2418 7.22854 49.2905 7.2042C49.3392 7.17985 49.3878 7.17985 49.4365 7.15551C49.4122 7.15551 49.3878 7.17985 49.3392 7.17985C49.3878 7.15551 49.4365 7.15551 49.4609 7.13117C49.5583 7.10682 49.6313 7.08248 49.7287 7.05814C49.8261 7.0338 49.8991 7.00945 49.9965 7.00945C50.0452 7.00945 50.0939 6.98511 50.1182 6.98511C50.2156 6.96077 50.313 6.96077 50.4104 6.93643C50.3617 6.83906 50.3373 6.76603 50.2886 6.66866C49.8017 5.67061 49.1444 4.72125 48.3166 3.8936C46.7585 2.14093 44.7865 1.16722 42.7658 0.850769C41.5485 2.53041 40.8425 4.59953 40.8425 6.83906C40.8425 8.03184 41.0373 9.17595 41.4025 10.2227C41.4268 10.2714 41.4268 10.2957 41.4511 10.3444C41.4755 10.3931 41.4998 10.4418 41.4998 10.5148C41.5729 10.7095 41.6459 10.8799 41.7189 11.0503C41.7433 11.1234 41.792 11.1964 41.8163 11.2694C41.8407 11.3181 41.865 11.3424 41.865 11.3911C41.865 11.4155 41.8894 11.4155 41.8894 11.4398C41.8894 11.4642 41.9137 11.4642 41.9137 11.4885C41.9381 11.5372 41.9624 11.5615 41.9624 11.6102C41.9868 11.6589 42.0111 11.6832 42.0111 11.7319C42.0354 11.7806 42.0598 11.8293 42.1085 11.9023C42.1328 11.951 42.1572 11.9997 42.2059 12.0484C42.2302 12.0971 42.2789 12.1458 42.3032 12.1944C42.3276 12.2431 42.3763 12.2918 42.4006 12.3405C42.3763 12.3405 42.3763 12.3161 42.3519 12.3161C42.2789 12.2675 42.2302 12.2431 42.1572 12.1944C42.1328 12.1944 42.1328 12.1701 42.1085 12.1701C42.0354 12.1214 41.9624 12.0971 41.8894 12.0484C41.8894 12.0484 41.8894 12.0484 41.865 12.0484C41.792 11.9997 41.6946 11.951 41.6216 11.9267C41.5485 11.878 41.4511 11.8293 41.3538 11.805C41.2807 11.7806 41.2077 11.7319 41.1347 11.7076C41.1103 11.6832 41.086 11.6832 41.0616 11.6832C40.9886 11.6589 40.9155 11.6102 40.8182 11.5859C40.6477 11.5128 40.453 11.4398 40.2825 11.3668C39.2357 11.0016 38.1158 10.8069 36.9472 10.8069C34.7317 10.8069 32.6623 11.5128 31.0068 12.73C31.3477 14.7748 32.2972 16.7465 33.8553 18.3288C34.2692 18.7426 34.7074 19.1321 35.17 19.4485C35.6325 19.7893 36.1194 20.0571 36.6307 20.3249C36.7281 20.3736 36.8011 20.3979 36.8985 20.4466C36.8985 20.3736 36.9228 20.3005 36.9228 20.2518C36.9228 20.1788 36.9472 20.1058 36.9472 20.0571L36.9715 19.911C36.9959 19.8137 37.0202 19.7163 37.0446 19.6433C37.0446 19.5946 37.0689 19.5703 37.0689 19.5216C37.0689 19.4972 37.0933 19.4485 37.0933 19.4242C37.0933 19.3999 37.1176 19.3512 37.1176 19.3268C37.142 19.2781 37.142 19.2538 37.1663 19.2051C37.1906 19.1564 37.1906 19.1321 37.215 19.0834C37.2393 19.0347 37.2393 19.0104 37.2637 18.9617C37.288 18.913 37.288 18.8887 37.3124 18.84C37.3367 18.7913 37.3367 18.7669 37.3611 18.7183C37.3854 18.6452 37.4341 18.5722 37.4584 18.4748C37.5315 18.3288 37.6045 18.1827 37.7019 18.0367C37.7506 17.9636 37.7993 17.8906 37.848 17.8176C37.8723 17.7932 37.8967 17.7689 37.8967 17.7202C37.921 17.6715 37.9454 17.6472 37.9697 17.5985C38.0184 17.5498 38.0427 17.5011 38.0914 17.4281C38.1158 17.4038 38.1158 17.3794 38.1401 17.3794C38.1645 17.3551 38.1888 17.3064 38.2132 17.282C38.2375 17.2577 38.2619 17.2334 38.2862 17.209C38.3349 17.136 38.4079 17.0873 38.4566 17.0143C38.481 16.9899 38.5053 16.9412 38.554 16.9169C38.5784 16.8926 38.6027 16.8682 38.6514 16.8195C38.6757 16.7952 38.6757 16.7952 38.7001 16.7708C38.7244 16.7465 38.7244 16.7465 38.7488 16.7222C38.7488 16.7222 38.7488 16.7222 38.7731 16.7222C38.8218 16.6978 38.8462 16.6491 38.8948 16.6248C38.9192 16.6005 38.9435 16.6004 38.9435 16.5761C38.9679 16.5518 38.9922 16.5518 38.9922 16.5274C39.0409 16.5031 39.0653 16.4544 39.114 16.4301C39.1626 16.4057 39.187 16.357 39.2357 16.3327C39.2844 16.3083 39.3087 16.2597 39.3574 16.2353C39.3818 16.211 39.4305 16.1866 39.4548 16.1623C39.4791 16.1623 39.4791 16.1379 39.5035 16.1379C39.5522 16.1136 39.5765 16.0893 39.6252 16.0649C39.6983 16.0162 39.7956 15.9675 39.8687 15.9189C39.9174 15.8945 39.9417 15.8702 39.9904 15.8458C40.0391 15.8215 40.0878 15.7971 40.1121 15.7728C40.2825 15.6754 40.4773 15.6024 40.6721 15.5294C40.7451 15.505 40.7938 15.4807 40.8668 15.4563C40.9399 15.432 40.9886 15.4077 41.0616 15.3833C41.159 15.359 41.232 15.3346 41.3294 15.3103C41.4268 15.2859 41.5242 15.2616 41.6216 15.2373C41.6703 15.2373 41.7189 15.2129 41.7676 15.2129C41.8163 15.2129 41.865 15.1886 41.9137 15.1886C41.9624 15.1886 42.0111 15.1642 42.0598 15.1642C42.1085 15.1642 42.1572 15.1399 42.2059 15.1399C42.3032 15.1399 42.425 15.1156 42.5224 15.1156C42.571 15.1156 42.6197 15.1156 42.6684 15.1156C42.6928 15.1156 42.7171 15.1156 42.7415 15.1156H42.8145C42.9849 15.1156 43.1553 15.1156 43.3258 15.1399C43.3988 15.1399 43.4962 15.1642 43.5692 15.1642C43.6179 15.1642 43.6909 15.1886 43.7396 15.1886C43.7883 15.1886 43.8614 15.2129 43.9101 15.2129H43.9344C43.9588 15.2129 43.9831 15.2129 44.0074 15.2373C44.0318 15.2373 44.0561 15.2373 44.0805 15.2616C44.1535 15.2859 44.2266 15.2859 44.2752 15.3103C44.4457 15.359 44.5917 15.4077 44.7378 15.4563C44.8109 15.4807 44.8839 15.505 44.9569 15.5294C45.0056 15.5537 45.0543 15.5781 45.1273 15.6024C45.176 15.6267 45.2004 15.6267 45.2491 15.6511C45.2978 15.6754 45.3221 15.6998 45.3708 15.6998C45.4195 15.7241 45.4438 15.7485 45.4925 15.7485C45.5412 15.7728 45.5656 15.7971 45.6143 15.8215C45.663 15.8458 45.6873 15.8702 45.736 15.8945C46.369 16.9656 46.8072 18.1584 47.0263 19.4485C45.9064 20.2762 44.6404 20.8361 43.3501 21.1282C44.6648 21.4203 45.9064 21.9802 47.0263 22.8078C46.8315 24.098 46.369 25.2908 45.7603 26.3618C45.8334 26.3132 45.9308 26.2645 46.0038 26.2158C45.9551 26.2888 45.9064 26.3862 45.8577 26.4592C46.9289 25.8263 48.1219 25.3638 49.3878 25.1691C50.1913 26.3132 50.7512 27.579 51.0434 28.8935C51.3355 27.579 51.8955 26.3132 52.6989 25.1691C53.9648 25.3881 55.1578 25.8263 56.229 26.4592C56.1803 26.3862 56.1316 26.2888 56.0829 26.2158C56.156 26.2645 56.229 26.3132 56.3264 26.3618C56.3751 26.4349 56.4238 26.5322 56.4724 26.6053C56.8863 27.2625 57.3489 27.8467 57.8845 28.4066C58.4201 28.9422 59.0287 29.429 59.6617 29.8428C60.0756 30.1106 60.4895 30.3297 60.9277 30.5244C61.0494 30.5731 61.1955 30.6461 61.3172 30.6948C61.4146 30.7192 61.512 30.7679 61.6094 30.7922C61.6581 30.8165 61.6824 30.8165 61.7311 30.8409C62.778 31.206 63.8979 31.4008 65.0665 31.4008C67.2819 31.4008 69.3513 30.6948 71.0068 29.4777C70.9581 29.1369 70.8851 28.8204 70.7877 28.4797C70.7634 28.3823 70.739 28.2849 70.7147 28.1875C70.7147 28.1632 70.6903 28.1145 70.6903 28.0902C70.666 28.0415 70.666 27.9928 70.6416 27.9685C70.4225 27.3356 70.1547 26.7026 69.8139 26.0941C69.7652 25.9967 69.7165 25.8993 69.6435 25.802C69.4974 25.5829 69.3513 25.3395 69.2053 25.1204C68.8888 24.6822 68.5479 24.2684 68.134 23.8789C67.988 23.7328 67.8175 23.5624 67.6471 23.4164C67.2576 23.0756 66.8681 22.7835 66.4542 22.4914C66.3325 22.4183 66.2107 22.3453 66.089 22.2723C65.9186 22.1749 65.7238 22.0532 65.529 21.9558C65.456 21.9315 65.4073 21.8828 65.3343 21.8585C65.3099 21.8341 65.2856 21.8341 65.2369 21.8098H65.2126C65.1639 21.7854 65.1152 21.7611 65.0665 21.7367C64.8717 23.5624 63.8492 25.1691 62.3885 26.1184C62.3154 26.1671 62.2424 26.2158 62.1693 26.2645C62.1207 26.2888 62.0963 26.3132 62.0476 26.3375C61.9746 26.3862 61.9015 26.4349 61.8042 26.4592C61.7555 26.4836 61.7311 26.5079 61.6824 26.5079C61.6094 26.5566 61.512 26.5809 61.439 26.6296C61.3903 26.654 61.3416 26.6783 61.3172 26.6783C61.2199 26.727 61.1225 26.7513 61.0007 26.8C60.9764 26.8 60.9277 26.8244 60.9034 26.8244C60.806 26.8487 60.7086 26.873 60.6112 26.8974C60.5625 26.9217 60.5138 26.9217 60.4651 26.9217C60.4165 26.9217 60.3678 26.9461 60.3191 26.9461C60.2217 26.9704 60.1243 26.9948 60.0269 26.9948C59.9782 26.9948 59.9295 27.0191 59.8808 27.0191C59.8322 27.0191 59.7835 27.0434 59.7348 27.0434C59.54 27.0678 59.3452 27.0678 59.1261 27.0678H59.0531C59.0287 27.0678 59.0044 27.0678 58.9801 27.0678C58.9314 27.0678 58.907 27.0678 58.8583 27.0678C58.8096 27.0678 58.7609 27.0678 58.6879 27.0678C58.6392 27.0678 58.5905 27.0678 58.5418 27.0434C58.4931 27.0434 58.4444 27.0434 58.3958 27.0191C58.3714 27.0191 58.3714 27.0191 58.3471 27.0191C58.2984 27.0191 58.2497 26.9948 58.1766 26.9948C58.1036 26.9948 58.0549 26.9704 58.0062 26.9704C57.9575 26.9704 57.9332 26.9461 57.8845 26.9461H57.8602C57.8358 26.9461 57.8115 26.9461 57.7871 26.9217H57.7628C57.7141 26.9217 57.6897 26.8974 57.641 26.8974C57.5437 26.873 57.4219 26.8487 57.3245 26.8C57.2759 26.7757 57.2272 26.7757 57.1785 26.7513C57.0081 26.7026 56.8376 26.6296 56.6672 26.5566C56.4968 26.4836 56.3507 26.4105 56.2046 26.3132C55.5717 25.2421 55.1334 24.0493 54.9143 22.7591C56.0342 21.9315 57.3002 21.3959 58.5905 21.0795C57.3002 20.7874 56.0342 20.2275 54.9143 19.3999C55.1091 18.1097 55.5717 16.9169 56.1803 15.8458C56.2533 15.7971 56.3264 15.7485 56.4238 15.7241C56.4724 15.6998 56.4968 15.6754 56.5455 15.6754C56.6672 15.6267 56.7889 15.5537 56.9107 15.505C56.9837 15.4807 57.0811 15.432 57.1541 15.4077C57.2272 15.3833 57.3002 15.359 57.3976 15.3346C57.4706 15.3103 57.5437 15.2859 57.641 15.2616C57.7141 15.2373 57.8115 15.2129 57.8845 15.2129C57.9575 15.1886 58.0549 15.1886 58.128 15.1642C58.2497 15.1399 58.3714 15.1156 58.4931 15.1156C58.5662 15.1156 58.6636 15.0912 58.7366 15.0912C58.8583 15.0912 59.0044 15.0669 59.1261 15.0669C60.7573 15.0669 62.2424 15.7241 63.3136 16.7952C63.3379 16.8195 63.3866 16.8682 63.411 16.8926C63.5084 16.9899 63.6057 17.1116 63.7031 17.209C63.8492 17.3794 63.9953 17.5742 64.117 17.7689C64.1657 17.8419 64.19 17.8906 64.2387 17.9636C64.3118 18.0854 64.3848 18.2314 64.4578 18.3531C64.5065 18.4261 64.5309 18.4992 64.5552 18.5722C64.5796 18.6452 64.6283 18.7183 64.6526 18.7913C64.6769 18.84 64.7013 18.8887 64.7256 18.9617C64.7743 19.1321 64.8474 19.2781 64.8961 19.4485C64.9691 19.6676 65.0178 19.8867 65.0421 20.1301C65.0665 20.2275 65.0665 20.3249 65.0908 20.4222C65.1882 20.3736 65.2612 20.3492 65.3586 20.3005C66.3568 19.8137 67.2819 19.1564 68.1097 18.3288C69.6922 16.7465 70.6417 14.7748 70.9581 12.7056C69.2783 11.4885 67.2332 10.7826 65.0178 10.7826C63.8492 10.7826 62.705 10.9773 61.6581 11.3424C61.5607 11.3668 61.4633 11.4155 61.3903 11.4398C61.2199 11.5128 61.0251 11.5859 60.8547 11.6589C60.7573 11.7076 60.6843 11.7319 60.5869 11.7806C60.4165 11.878 60.246 11.951 60.0756 12.0484C59.9052 12.1457 59.7348 12.2431 59.5887 12.3405C60.0026 11.6832 60.3434 10.9773 60.5869 10.247C60.9521 9.20029 61.1468 8.05619 61.1468 6.88774C61.1468 4.64822 60.4408 2.5791 59.2235 0.875112C57.2028 1.21591 55.2552 2.16527 53.6727 3.74754C52.8449 4.57519 52.1876 5.52455 51.7007 6.54694C51.7737 6.59563 51.725 6.66866 51.7007 6.76603ZM42.6928 14.1662C42.6197 14.1662 42.571 14.1662 42.5224 14.1662C42.425 14.1662 42.3032 14.1905 42.1572 14.1905L41.9867 14.2149H41.9137H41.8407C41.792 14.2149 41.7433 14.2392 41.6946 14.2392H41.6459L41.5485 14.2879L41.4755 14.3122C41.3781 14.3366 41.2564 14.3609 41.1347 14.3853C41.0373 14.4096 40.9399 14.434 40.8425 14.4583C40.7695 14.4826 40.6964 14.507 40.6234 14.5313C40.5504 14.5557 40.4773 14.58 40.4043 14.6044C40.2095 14.6774 39.9904 14.7748 39.7713 14.8965C39.7226 14.9208 39.6496 14.9452 39.6009 14.9938C39.5522 15.0182 39.5035 15.0425 39.4548 15.0669C39.3574 15.1399 39.2357 15.1886 39.1626 15.2373C39.1383 15.2616 39.0896 15.2859 39.0653 15.3103L39.0409 15.3346C39.0409 15.3346 39.0166 15.359 38.9922 15.3833C38.9679 15.4077 38.9192 15.432 38.8948 15.4563C38.8462 15.505 38.7975 15.5294 38.7488 15.5781C38.7001 15.6024 38.6514 15.6511 38.627 15.6754C38.5784 15.6998 38.554 15.7485 38.5053 15.7728L38.481 15.7971L38.3836 15.8458C38.3592 15.8702 38.3349 15.8945 38.3105 15.9189C38.2862 15.9432 38.2619 15.9675 38.2375 15.9919H38.2132L38.1401 16.0406V16.0649L38.1158 16.0893L38.0914 16.1136C38.0671 16.1379 38.0184 16.1866 37.9941 16.211C37.9697 16.2353 37.921 16.284 37.8967 16.3083C37.8236 16.3814 37.7506 16.4544 37.7019 16.5274L37.6776 16.5761L37.6045 16.6491C37.5802 16.6978 37.5315 16.7222 37.5071 16.7708L37.4828 16.8195C37.4341 16.8682 37.3854 16.9412 37.3611 16.9899C37.3367 17.0386 37.3124 17.063 37.288 17.1116L37.2637 17.136L37.2393 17.1847L37.215 17.2334C37.1663 17.3064 37.1176 17.4038 37.0689 17.4768C36.9715 17.6472 36.8742 17.8176 36.8011 17.988C36.7524 18.0854 36.7037 18.1584 36.6794 18.2557C36.655 18.3044 36.6307 18.3531 36.6307 18.4018C36.6063 18.4505 36.6063 18.4748 36.582 18.5235C36.582 18.5479 36.5577 18.5722 36.5577 18.6209L36.4359 18.6939C36.4116 18.7426 36.4116 18.7913 36.3872 18.84C36.3629 18.8887 36.3629 18.9373 36.3385 18.986C36.3385 19.0104 36.3142 19.0347 36.3142 19.0591V19.0834V19.1077C36.1194 18.986 35.9247 18.8643 35.7299 18.7183C35.316 18.4261 34.9021 18.061 34.5126 17.6959C33.2466 16.4301 32.3945 14.8478 32.005 13.1195C33.4901 12.1701 35.2186 11.6589 36.9959 11.6589C38.0427 11.6589 39.0653 11.8293 40.0634 12.1701L40.1365 12.1944C40.2826 12.2431 40.4286 12.2918 40.5747 12.3648C40.6477 12.3892 40.7208 12.4135 40.7695 12.4622L40.8182 12.4865H40.8425C40.8425 12.4865 40.8425 12.4865 40.8668 12.4865H40.8912C40.9642 12.5109 41.0129 12.5352 41.086 12.5839C41.159 12.6326 41.2564 12.6569 41.3294 12.7056L41.3538 12.73C41.4025 12.7543 41.4755 12.803 41.5242 12.8273C41.5485 12.8273 41.5485 12.8517 41.5729 12.8517H41.5972C41.6459 12.876 41.6946 12.9004 41.7433 12.9491C41.7433 12.9491 41.7676 12.9491 41.7676 12.9734C41.792 12.9734 41.792 12.9977 41.8163 12.9977C42.0841 13.3872 42.3763 13.7767 42.6928 14.1662ZM44.9569 9.6628C44.9326 9.71149 44.9082 9.73583 44.9082 9.78451L44.8839 9.8332L44.8595 9.88189C44.8352 9.93057 44.8109 10.0036 44.7865 10.0766C44.7622 10.1253 44.7378 10.1983 44.7135 10.2714C44.7135 10.2957 44.6891 10.3201 44.6891 10.3444C44.6648 10.3931 44.6404 10.4418 44.6404 10.4905C44.5917 10.6122 44.5674 10.7339 44.5187 10.8799C44.4944 11.0016 44.4457 11.1234 44.4213 11.2694C44.397 11.3181 44.397 11.3668 44.397 11.4155V11.4885C44.397 11.5128 44.397 11.5615 44.3726 11.5859V11.6589C44.3483 11.805 44.3239 11.9267 44.3239 12.0727C44.3239 12.1214 44.3239 12.1944 44.2996 12.2431C44.2996 12.3648 44.2752 12.5109 44.2752 12.6326C43.9101 12.2918 43.4962 11.9997 43.0823 11.7319L43.058 11.6832L43.0093 11.6102L42.9849 11.5615C42.9606 11.5372 42.9606 11.5128 42.9362 11.4885L42.9119 11.4398C42.8875 11.4155 42.8875 11.3668 42.8632 11.3424V11.3181L42.7658 11.172C42.7415 11.1477 42.7415 11.1234 42.7171 11.099V11.0503V11.026C42.7171 11.0016 42.6928 11.0016 42.6928 10.9773L42.6684 10.9286L42.6441 10.8799C42.6197 10.8069 42.571 10.7339 42.5467 10.6852C42.498 10.5635 42.425 10.4174 42.3763 10.2957L42.3276 10.1983C42.3032 10.1497 42.3032 10.101 42.2789 10.0766V10.0523V10.0279C42.2789 10.0279 42.2789 10.0279 42.2789 10.0036L42.2546 9.93057C41.9137 8.93252 41.7433 7.88579 41.7433 6.83906C41.7433 5.0377 42.2302 3.30937 43.1797 1.80013C44.9082 2.18961 46.4664 3.06595 47.7323 4.33176C48.2679 4.8673 48.7549 5.47587 49.1444 6.13312H49.12H49.0957H49.0714L49.0227 6.1818H48.9496L48.9253 6.20615C48.9009 6.20615 48.8522 6.23049 48.8279 6.23049C48.7792 6.25483 48.7305 6.25483 48.6818 6.27918C48.6575 6.27918 48.6331 6.30352 48.6088 6.30352C48.5601 6.32786 48.5114 6.3522 48.4627 6.3522C48.414 6.37655 48.3653 6.40089 48.2923 6.42523C48.2436 6.44957 48.1706 6.47392 48.1219 6.49826C48.0488 6.5226 48.0001 6.57129 47.9515 6.59563C47.9271 6.61997 47.8784 6.61997 47.8541 6.64431L47.8297 6.66866C47.7323 6.71734 47.635 6.76603 47.5619 6.81471H47.5376H47.5132C47.5132 6.81471 47.5132 6.81471 47.4889 6.81471C47.4402 6.83906 47.3915 6.8634 47.3672 6.88774C47.2941 6.93643 47.2454 6.98511 47.1724 7.0338C47.148 7.05814 47.0993 7.08248 47.075 7.10682C47.075 7.10682 47.0507 7.10682 47.0507 7.13117C47.0507 7.13117 47.0507 7.13117 47.0263 7.13117L46.9776 7.15551L46.9533 7.17985L46.9289 7.2042H46.9046C46.8559 7.25288 46.8072 7.27722 46.7585 7.32591C46.7098 7.35025 46.6611 7.39894 46.6124 7.44762C46.5637 7.49631 46.5151 7.54499 46.4664 7.59368L46.4177 7.69105L46.3933 7.71539C46.369 7.73973 46.3203 7.76408 46.3203 7.78842C46.1742 7.93447 46.0281 8.08053 45.9064 8.22659C45.8577 8.29961 45.7847 8.37264 45.7116 8.44567L45.5169 8.6891V8.71344C45.4925 8.76212 45.4438 8.81081 45.4195 8.83515C45.3708 8.93252 45.2978 9.00555 45.2491 9.07858C45.2247 9.10292 45.2004 9.12726 45.2004 9.17595V9.22463C45.1517 9.29766 45.1273 9.37069 45.0787 9.41937C45.03 9.51675 45.0056 9.58977 44.9569 9.6628ZM58.7609 27.8711C58.834 27.8711 58.907 27.8711 58.9557 27.8711C59.0044 27.8711 59.0287 27.8711 59.0774 27.8711C59.1018 27.8711 59.1018 27.8711 59.1261 27.8711H59.1505C59.1505 27.8711 59.1748 27.8711 59.1992 27.8711C59.2235 27.8711 59.2479 27.8711 59.2965 27.8711C59.54 27.8711 59.7591 27.8711 59.9782 27.8467C60.0269 27.8467 60.1 27.8467 60.1486 27.8224C60.1973 27.8224 60.246 27.7981 60.3191 27.7981C60.4408 27.7737 60.5382 27.7494 60.6599 27.7494C60.7086 27.7494 60.7573 27.725 60.806 27.725C60.879 27.7007 60.9277 27.7007 60.9764 27.6763C61.0981 27.652 61.1955 27.6277 61.2929 27.579C61.3416 27.579 61.3659 27.5546 61.4146 27.5303C61.5364 27.4816 61.6337 27.4573 61.7555 27.4086C61.8042 27.3842 61.8528 27.3599 61.9015 27.3356C62.0233 27.2869 62.1207 27.2382 62.1937 27.2138L62.218 27.1895L62.3154 27.1408C62.4128 27.0921 62.5102 27.0434 62.5832 26.9948C62.6319 26.9704 62.6806 26.9461 62.7293 26.9217C62.8267 26.873 62.8997 26.8 62.9728 26.7513C64.3605 25.8506 65.3343 24.4875 65.7969 22.9295C65.8942 22.9782 65.9673 23.0512 66.0647 23.0999C66.4542 23.3434 66.8194 23.6355 67.1602 23.9276C67.3306 24.0736 67.4767 24.2197 67.5984 24.3414C67.9393 24.6822 68.2801 25.0717 68.5723 25.4855C68.7183 25.6803 68.8644 25.8993 68.9861 26.0941L69.0348 26.1671C69.0592 26.2158 69.1079 26.2888 69.1322 26.3375C69.4244 26.873 69.6922 27.4573 69.8869 28.0415L69.9113 28.0902L69.9356 28.1632C69.9356 28.1875 69.96 28.2119 69.96 28.2362C69.9843 28.3093 70.0087 28.4066 70.033 28.504C70.0574 28.6257 70.106 28.7474 70.1304 28.8691C68.6453 29.8185 66.9168 30.3297 65.1395 30.3297C64.2144 30.3297 63.2892 30.1836 62.4128 29.9159L62.072 29.7942C62.0476 29.7942 62.0233 29.7698 62.0233 29.7698L61.9746 29.7455C61.9015 29.7211 61.8042 29.6968 61.7311 29.6481C61.6094 29.5994 61.512 29.5507 61.3659 29.502C60.9521 29.3316 60.5625 29.1126 60.1973 28.8691C59.6861 28.5527 59.1992 28.1632 58.7609 27.7494C58.7366 27.8711 58.7609 27.8711 58.7609 27.8711ZM56.156 21.0065C55.596 21.2742 55.0604 21.615 54.5491 21.9802L54.1109 22.2966L54.2083 22.8322C54.2813 23.2703 54.3787 23.6842 54.5004 24.098L53.3805 23.4164L54.0622 24.4631C53.6727 24.3657 53.2832 24.2684 52.8936 24.1954L52.358 24.098L52.0172 24.5605C51.652 25.0717 51.3355 25.6072 51.0677 26.1671C50.7999 25.6072 50.4834 25.0717 50.1182 24.5605L49.8017 24.1223L49.2661 24.1954C48.8522 24.2684 48.4384 24.3657 48.0245 24.4631L48.7062 23.3677L47.6593 24.0493C47.781 23.6598 47.8541 23.246 47.9271 22.8322L48.0001 22.2966L47.5619 22.0045C47.0507 21.6394 46.5151 21.3229 45.9551 21.0308C46.5151 20.763 47.0507 20.4222 47.5619 20.0571L48.0001 19.7406L47.9028 19.2051C47.8297 18.7913 47.7567 18.4018 47.635 17.988L48.7549 18.7183L48.0488 17.5742C48.4384 17.6959 48.8522 17.7689 49.2418 17.8419L49.7774 17.9393L50.0939 17.5011C50.4591 16.9899 50.7756 16.4544 51.0434 15.8945C51.2625 16.3814 51.5303 16.8195 51.8468 17.282V18.0367L52.8449 17.8663C53.2345 17.7932 53.624 17.7202 54.0135 17.5985L53.3319 18.6939L54.4761 17.988C54.3544 18.4018 54.257 18.8156 54.2083 19.2295L54.1109 19.765L54.5491 20.0814C55.0604 20.4222 55.596 20.7387 56.156 21.0065ZM60.3191 12.9491C60.4165 12.9004 60.5138 12.8273 60.6112 12.7787C60.7573 12.7056 60.9277 12.6083 61.0738 12.5352C61.1468 12.4865 61.2442 12.4622 61.3172 12.4135C61.4633 12.3405 61.6337 12.2675 61.8042 12.2188L61.8528 12.1944C61.9259 12.1701 61.9746 12.1458 62.0476 12.1214C63.0214 11.7806 64.0683 11.6102 65.1152 11.6102C66.8924 11.6102 68.621 12.1214 70.106 13.0708C69.7165 14.8234 68.8644 16.4057 67.5984 17.6715C67.0628 18.2071 66.4542 18.6939 65.7969 19.0834C65.7482 18.9373 65.6995 18.7913 65.6508 18.6209C65.6264 18.5722 65.6264 18.5235 65.6021 18.4748L65.5777 18.4505C65.5534 18.3775 65.5047 18.2801 65.4804 18.2071C65.4317 18.1097 65.4073 18.0367 65.3586 17.9393C65.2856 17.7932 65.2126 17.6472 65.1152 17.4768C65.0665 17.4038 65.0178 17.3064 64.9691 17.2577C64.823 17.0386 64.6526 16.8195 64.4822 16.6248C64.3848 16.5031 64.2874 16.3814 64.1657 16.2597C64.1413 16.2353 64.0927 16.1866 64.044 16.1379C62.8023 14.8965 61.1468 14.1905 59.3939 14.1662C59.7348 13.7524 60.0269 13.3629 60.3191 12.9491ZM54.4031 4.30742C55.669 3.04161 57.2272 2.18961 58.9314 1.80013C59.8808 3.30937 60.3678 5.0377 60.3678 6.83906C60.3678 7.88579 60.1973 8.93252 59.8565 9.93057L59.8322 10.0036C59.6374 10.5878 59.3696 11.172 59.0287 11.7076C58.6149 11.9754 58.2253 12.2918 57.8358 12.6083C57.8358 12.0484 57.7384 11.4885 57.5924 10.953C57.568 10.8799 57.5437 10.8069 57.5437 10.7339V10.7095V10.6852C57.5193 10.5878 57.4706 10.4905 57.4463 10.3931L57.4219 10.3444C57.4219 10.3201 57.3976 10.2957 57.3976 10.2714L57.3732 10.2227C57.3489 10.174 57.3245 10.1253 57.3002 10.0766C57.2759 10.0279 57.2515 9.97926 57.2515 9.93057C57.2515 9.90623 57.2272 9.90623 57.2272 9.88189C57.2272 9.85754 57.2028 9.8332 57.2028 9.8332V9.80886C57.1785 9.76017 57.1541 9.71149 57.1298 9.63846C57.1298 9.61412 57.1054 9.61412 57.1054 9.58977C57.0811 9.56543 57.0811 9.54109 57.0567 9.51675C57.0567 9.4924 57.0324 9.46806 57.0324 9.46806L56.9107 9.27332C56.9107 9.24898 56.8863 9.24898 56.8863 9.22463V9.10292L56.6916 8.90818L56.6672 8.88384C56.6185 8.83515 56.5942 8.76212 56.5455 8.71344C56.5211 8.66475 56.4724 8.61607 56.4481 8.59172C56.3994 8.5187 56.3264 8.42133 56.229 8.32396C56.1803 8.27527 56.156 8.22659 56.1073 8.20224C56.0586 8.15356 56.0342 8.10487 55.9855 8.08053C55.9612 8.05619 55.9368 8.03184 55.9125 8.0075L55.8882 7.98316C55.7908 7.86145 55.669 7.76408 55.5717 7.66671C55.523 7.61802 55.4986 7.59368 55.4499 7.56933L55.4256 7.54499C55.3769 7.49631 55.3282 7.47196 55.2795 7.42328C55.1334 7.30157 54.963 7.17985 54.8169 7.08248C54.6465 6.96077 54.4518 6.83906 54.257 6.74168C54.2083 6.71734 54.1353 6.66866 54.0622 6.64431C53.9648 6.59563 53.8918 6.54694 53.7944 6.5226C53.7457 6.49826 53.697 6.47392 53.6483 6.44957C53.5997 6.42523 53.5753 6.42523 53.5266 6.40089H53.5023C53.4779 6.37655 53.4292 6.37655 53.4049 6.3522C53.3562 6.32786 53.3075 6.32786 53.2588 6.30352C53.2101 6.27918 53.1614 6.27918 53.1371 6.25483C53.1127 6.25483 53.064 6.23049 53.0154 6.23049C53.3805 5.47587 53.8431 4.8673 54.4031 4.30742Z" fill="#F08A6B"/>
<path d="M42.8632 27.0434C40.3799 27.0434 38.2375 25.4854 37.3367 23.2946C37.3124 23.2216 37.2637 23.1242 37.2393 23.0268C37.215 22.9781 37.215 22.9295 37.1906 22.9051C37.142 22.7834 37.1176 22.6374 37.0689 22.5156C37.0446 22.4183 37.0202 22.3452 36.9959 22.2479C36.9472 22.0531 36.9228 21.8827 36.8985 21.688C36.8011 21.7367 36.7281 21.761 36.6307 21.8097C35.8273 22.1992 35.0482 22.7104 34.3422 23.3433C34.2692 23.4163 34.1718 23.4893 34.0987 23.5624C34.0257 23.6354 33.9527 23.7084 33.8553 23.7815C32.2972 25.3637 31.3233 27.3355 31.0068 29.4046C32.6867 30.6217 34.7317 31.3277 36.9472 31.3277C38.1158 31.3277 39.26 31.1329 40.3069 30.7678C40.7695 30.5974 41.2077 30.4026 41.6459 30.1836C41.8894 30.0619 42.1572 29.9158 42.4006 29.7454C43.691 28.9178 44.7865 27.8223 45.5899 26.5078C45.6386 26.4348 45.6873 26.3374 45.736 26.2644C45.4195 26.4348 45.103 26.5809 44.7622 26.7026C44.2022 26.9217 43.5449 27.0434 42.8632 27.0434ZM41.9868 29.0151C41.7676 29.1612 41.5242 29.2829 41.3051 29.4046C40.9155 29.5993 40.5017 29.7941 40.0878 29.9401C39.0896 30.2809 38.0671 30.4513 37.0202 30.4513C35.243 30.4513 33.5388 29.9401 32.0294 28.9908C32.4189 27.2625 33.271 25.6802 34.537 24.39C34.61 24.317 34.683 24.244 34.7561 24.1709C34.8291 24.0979 34.9022 24.0492 34.9752 23.9762C35.3891 23.6111 35.8516 23.2703 36.3385 22.9781C36.3629 23.0512 36.3872 23.0999 36.3872 23.1729V23.1972C36.4116 23.2459 36.4116 23.2703 36.4359 23.3189C36.4603 23.4163 36.509 23.5137 36.5333 23.6111C37.5802 26.2157 40.0634 27.8954 42.8389 27.8954C43.0336 27.8954 43.204 27.8954 43.3988 27.871C42.9606 28.3092 42.498 28.6743 41.9868 29.0151Z" fill="#F08A6B"/>
</svg>
