<svg width="51" height="51" viewBox="0 0 51 51" fill="none" xmlns="http://www.w3.org/2000/svg">
<path d="M46.8721 7.03609H37.4971V3.91109C37.4971 3.7742 37.4613 3.63969 37.393 3.52104C37.3247 3.40239 37.2265 3.30375 37.1081 3.23502C36.9897 3.16629 36.8554 3.12986 36.7185 3.1294C36.5816 3.12894 36.447 3.16445 36.3281 3.23238L32.0283 5.68941V3.91109C32.0283 3.70389 31.946 3.50518 31.7995 3.35866C31.653 3.21215 31.4543 3.12984 31.2471 3.12984H14.8408C14.6336 3.12984 14.4349 3.21215 14.2884 3.35866C14.1419 3.50518 14.0596 3.70389 14.0596 3.91109V7.03609H4.68457C3.85605 7.03702 3.06174 7.36656 2.47589 7.95241C1.89004 8.53826 1.5605 9.33257 1.55957 10.1611V36.7236C1.5605 37.5521 1.89004 38.3464 2.47589 38.9323C3.06174 39.5181 3.85605 39.8477 4.68457 39.8486H20.7881L19.7461 42.9736H17.1846C16.9774 42.9736 16.7787 43.0559 16.6321 43.2024C16.4856 43.3489 16.4033 43.5476 16.4033 43.7548V46.0986C16.4033 46.3058 16.4856 46.5045 16.6321 46.651C16.7787 46.7975 16.9774 46.8798 17.1846 46.8798H34.3721C34.5793 46.8798 34.778 46.7975 34.9245 46.651C35.071 46.5045 35.1533 46.3058 35.1533 46.0986V43.7548C35.1533 43.5476 35.071 43.3489 34.9245 43.2024C34.778 43.0559 34.5793 42.9736 34.3721 42.9736H31.8105L30.7686 39.8486H46.8721C47.7005 39.8475 48.4948 39.5179 49.0806 38.9321C49.6664 38.3463 49.996 37.5521 49.9971 36.7236V10.1611C49.996 9.33262 49.6664 8.5384 49.0806 7.95258C48.4948 7.36676 47.7005 7.03718 46.8721 7.03609ZM32.0283 7.48921L35.9346 5.25777V15.0644L32.0283 12.833V7.48921ZM15.6221 4.69234H30.4658V15.6298H15.6221V4.69234ZM33.5908 44.5361V45.3173H17.9658V44.5361H33.5908ZM21.3936 42.9736L22.4355 39.8486H29.1211L30.1631 42.9736H21.3936ZM48.4346 36.7236C48.434 37.1378 48.2692 37.5349 47.9763 37.8278C47.6834 38.1208 47.2863 38.2855 46.8721 38.2861H4.68457C4.27034 38.2855 3.87322 38.1208 3.58032 37.8278C3.28741 37.5349 3.12261 37.1378 3.12207 36.7236V35.1611H48.4346V36.7236ZM48.4346 33.5986H3.12207V10.1611C3.12261 9.74686 3.28741 9.34974 3.58032 9.05684C3.87322 8.76393 4.27034 8.59913 4.68457 8.59859H14.0596V16.4111C14.0596 16.6183 14.1419 16.817 14.2884 16.9635C14.4349 17.11 14.6336 17.1923 14.8408 17.1923H31.2471C31.4543 17.1923 31.653 17.11 31.7995 16.9635C31.946 16.817 32.0283 16.6183 32.0283 16.4111V14.6328L36.3281 17.0898C36.447 17.1577 36.5816 17.1932 36.7185 17.1928C36.8554 17.1923 36.9897 17.1559 37.1081 17.0872C37.2265 17.0184 37.3247 16.9198 37.393 16.8011C37.4613 16.6825 37.4971 16.548 37.4971 16.4111V8.59859H46.8721C47.2863 8.59913 47.6834 8.76393 47.9763 9.05684C48.2692 9.34974 48.434 9.74686 48.4346 10.1611V33.5986Z" fill="#F08A6B"/>
<path d="M10.1533 35.9419H5.46582C5.25862 35.9419 5.05991 36.0242 4.91339 36.1707C4.76688 36.3172 4.68457 36.5159 4.68457 36.7231C4.68457 36.9303 4.76688 37.1291 4.91339 37.2756C5.05991 37.4221 5.25862 37.5044 5.46582 37.5044H10.1533C10.3605 37.5044 10.5592 37.4221 10.7057 37.2756C10.8523 37.1291 10.9346 36.9303 10.9346 36.7231C10.9346 36.5159 10.8523 36.3172 10.7057 36.1707C10.5592 36.0242 10.3605 35.9419 10.1533 35.9419Z" fill="#F08A6B"/>
<path d="M13.2783 35.9419H12.4971C12.2899 35.9419 12.0912 36.0242 11.9446 36.1707C11.7981 36.3172 11.7158 36.5159 11.7158 36.7231C11.7158 36.9303 11.7981 37.1291 11.9446 37.2756C12.0912 37.4221 12.2899 37.5044 12.4971 37.5044H13.2783C13.4855 37.5044 13.6842 37.4221 13.8307 37.2756C13.9773 37.1291 14.0596 36.9303 14.0596 36.7231C14.0596 36.5159 13.9773 36.3172 13.8307 36.1707C13.6842 36.0242 13.4855 35.9419 13.2783 35.9419Z" fill="#F08A6B"/>
</svg>
