<svg width="174" height="174" viewBox="0 0 174 174" fill="none" xmlns="http://www.w3.org/2000/svg">
<path d="M88.6098 3.8356L79.5966 4.01338L79.8036 14.5113L81.1684 14.4844L80.9776 4.8113L87.2614 4.68736L87.4522 14.3605L88.8169 14.3336L88.6098 3.8356Z" fill="#F08A6B"/>
<path d="M97.4314 9.3884C97.3042 9.93376 97.2701 10.5419 97.3292 11.2129C97.4004 11.8764 97.5986 12.5233 97.9239 13.1537C98.2492 13.7841 98.7167 14.3552 99.3264 14.8671C99.9383 15.3692 100.726 15.7327 101.69 15.9576C102.343 16.1098 102.95 16.1694 103.513 16.1362C104.087 16.0956 104.615 15.9878 105.097 15.8128C105.59 15.64 106.032 15.4147 106.426 15.1368C106.821 14.8492 107.162 14.5333 107.448 14.1892C107.745 13.8376 107.989 13.4736 108.18 13.097C108.38 12.7227 108.522 12.3554 108.606 11.9951C108.734 11.4497 108.757 10.8441 108.676 10.1784C108.597 9.50285 108.386 8.84763 108.041 8.21271C107.696 7.57779 107.203 7.00586 106.562 6.49691C105.933 5.98049 105.131 5.6087 104.157 5.38154C103.193 5.15665 102.326 5.13399 101.555 5.31356C100.784 5.49312 100.113 5.7936 99.5424 6.21499C98.9741 6.62664 98.5101 7.11911 98.1504 7.6924C97.8005 8.26797 97.5608 8.8333 97.4314 9.3884ZM98.8629 9.72233C99.0219 9.04063 99.2696 8.44121 99.6058 7.92408C99.9541 7.39948 100.356 6.97469 100.812 6.64972C101.277 6.32702 101.785 6.1116 102.333 6.00347C102.885 5.8856 103.452 5.89481 104.037 6.0311C104.611 6.16513 105.124 6.40807 105.576 6.75992C106.04 7.1043 106.414 7.5253 106.699 8.02291C106.993 8.52279 107.185 9.08615 107.275 9.71297C107.367 10.3301 107.334 10.9794 107.175 11.6611C107.016 12.3428 106.757 12.9449 106.399 13.4672C106.044 13.9798 105.623 14.3952 105.138 14.7133C104.663 15.0337 104.14 15.2506 103.569 15.3639C103.011 15.4698 102.444 15.4557 101.87 15.3217C101.285 15.1854 100.771 14.9473 100.326 14.6075C99.8843 14.2579 99.5259 13.8355 99.2513 13.3401C98.9863 12.847 98.8126 12.2931 98.7301 11.6783C98.6597 11.056 98.7039 10.404 98.8629 9.72233Z" fill="#F08A6B"/>
<path d="M128.071 14.427L120.048 10.2801L115.218 19.6251L116.432 20.253L120.883 11.6423L126.477 14.5334L122.026 23.1441L123.241 23.772L128.071 14.427Z" fill="#F08A6B"/>
<path d="M134.012 25.6808C134.167 25.9011 134.345 26.1265 134.544 26.357C134.749 26.5798 134.99 26.8064 135.268 27.0368C135.737 27.4272 136.207 27.7073 136.678 27.8772C137.149 28.0471 137.596 28.1196 138.021 28.0947C138.459 28.0685 138.861 27.9603 139.228 27.7701C139.601 27.5722 139.928 27.3039 140.209 26.9651C140.478 26.6417 140.68 26.2889 140.816 25.9067C140.958 25.5168 141.006 25.1212 140.962 24.72C140.932 24.3175 140.806 23.9132 140.584 23.5071C140.362 23.101 140.027 22.7124 139.581 22.3412L136.878 20.0948L130.158 28.1798L131.209 29.0534L134.012 25.6808ZM137.506 21.4766L138.719 22.4846C139.043 22.7534 139.28 23.0479 139.43 23.3682C139.58 23.6885 139.656 24.0121 139.658 24.339C139.666 24.6582 139.61 24.9692 139.488 25.2719C139.381 25.5733 139.231 25.8395 139.039 26.0705C138.854 26.2938 138.626 26.4889 138.357 26.6559C138.102 26.8216 137.817 26.9297 137.502 26.9801C137.187 27.0305 136.858 27.011 136.515 26.9217C136.173 26.8324 135.829 26.6438 135.482 26.3558C135.243 26.1574 135.03 25.9673 134.843 25.7855C134.662 25.596 134.516 25.4032 134.406 25.2072L137.506 21.4766Z" fill="#F08A6B"/>
<path d="M144.564 33.8083C144.116 34.1443 143.699 34.5883 143.313 35.1403C142.941 35.6943 142.677 36.3173 142.521 37.0093C142.365 37.7013 142.356 38.4393 142.494 39.2233C142.64 40.0013 143.01 40.7863 143.604 41.5783C144.006 42.1143 144.433 42.5503 144.885 42.8863C145.351 43.2243 145.825 43.4813 146.307 43.6573C146.795 43.8413 147.279 43.9533 147.759 43.9933C148.247 44.0273 148.711 44.0043 149.151 43.9243C149.605 43.8463 150.026 43.7243 150.414 43.5583C150.808 43.4003 151.153 43.2103 151.449 42.9883C151.897 42.6523 152.304 42.2033 152.67 41.6413C153.044 41.0733 153.303 40.4353 153.447 39.7273C153.591 39.0193 153.581 38.2643 153.417 37.4623C153.267 36.6623 152.892 35.8623 152.292 35.0623C151.698 34.2703 151.048 33.6953 150.342 33.3373C149.636 32.9793 148.929 32.7783 148.221 32.7343C147.521 32.6843 146.849 32.7633 146.205 32.9713C145.567 33.1873 145.02 33.4663 144.564 33.8083ZM145.446 34.9843C146.006 34.5643 146.581 34.2643 147.171 34.0843C147.775 33.9063 148.356 33.8393 148.914 33.8833C149.478 33.9353 150.005 34.0963 150.495 34.3663C150.993 34.6303 151.422 35.0023 151.782 35.4823C152.136 35.9543 152.373 36.4703 152.493 37.0303C152.627 37.5923 152.643 38.1553 152.541 38.7193C152.445 39.2913 152.23 39.8463 151.896 40.3843C151.57 40.9163 151.127 41.3923 150.567 41.8123C150.007 42.2323 149.422 42.5273 148.812 42.6973C148.21 42.8613 147.621 42.9093 147.045 42.8413C146.475 42.7813 145.935 42.6113 145.425 42.3313C144.929 42.0533 144.504 41.6783 144.15 41.2063C143.79 40.7263 143.549 40.2133 143.427 39.6673C143.313 39.1153 143.31 38.5613 143.418 38.0053C143.532 37.4573 143.755 36.9213 144.087 36.3973C144.433 35.8753 144.886 35.4043 145.446 34.9843Z" fill="#F08A6B"/>
<path d="M161.029 50.4401L163.045 55.0769L163.804 54.7469L161.242 48.8543L151.582 53.0543L152.962 56.2283C153.278 56.9551 153.619 57.5125 153.984 57.9005C154.354 58.2977 154.725 58.5737 155.099 58.7285C155.482 58.8793 155.856 58.9353 156.222 58.8965C156.592 58.8669 156.938 58.7821 157.26 58.6421C157.582 58.5021 157.88 58.3069 158.154 58.0565C158.432 57.8153 158.64 57.5007 158.778 57.1127C158.919 56.7339 158.966 56.2759 158.919 55.7387C158.884 55.2067 158.711 54.5819 158.399 53.8643L157.565 51.9461L161.029 50.4401ZM152.707 54.0581L156.958 52.2101L157.75 54.0317C157.906 54.3905 157.991 54.7365 158.004 55.0697C158.022 55.4121 157.976 55.7219 157.867 55.9991C157.762 56.2855 157.595 56.5439 157.367 56.7743C157.148 57.0007 156.882 57.1819 156.57 57.3179C156.238 57.4619 155.916 57.5255 155.602 57.5087C155.289 57.4919 154.999 57.4157 154.732 57.2801C154.478 57.1497 154.245 56.9665 154.033 56.7305C153.825 56.5037 153.659 56.2477 153.535 55.9625L152.707 54.0581Z" fill="#F08A6B"/>
<path d="M167.29 64.2211L166.937 62.6482L160.517 68.9224L159.281 68.644C159.063 68.59 158.864 68.506 158.684 68.392C158.506 68.2878 158.382 68.0789 158.312 67.7653C158.259 67.5301 158.284 67.298 158.387 67.069C158.49 66.84 158.61 66.6431 158.748 66.4783L157.243 66.1678C157.156 66.3314 157.093 66.5565 157.055 66.8431C157.008 67.1417 157.023 67.4576 157.098 67.7908C157.131 67.9378 157.179 68.0864 157.244 68.2366C157.311 68.3966 157.41 68.5391 157.541 68.6641C157.674 68.7989 157.84 68.9211 158.04 69.0307C158.249 69.1381 158.511 69.2285 158.826 69.3019L168.917 71.4682L168.745 70.7038L162.16 69.2947L162.147 69.2359L167.29 64.2211Z" fill="#F08A6B"/>
<path d="M170.83 85.1523C170.826 85.3323 170.826 85.5674 170.83 85.8576C170.844 86.158 170.894 86.4441 170.978 86.7159C171.063 86.9977 171.203 87.2406 171.399 87.4446C171.595 87.6486 171.878 87.7543 172.248 87.7617L172.428 87.7653L172.457 86.3253C172.407 86.3343 172.356 86.3383 172.306 86.3373C172.266 86.3465 172.221 86.3506 172.171 86.3496C171.961 86.3454 171.797 86.2971 171.679 86.2047C171.561 86.1123 171.473 86.0005 171.415 85.8693C171.358 85.7481 171.325 85.6224 171.318 85.4922C171.311 85.362 171.308 85.2519 171.31 85.1619C171.311 85.0719 171.319 84.957 171.331 84.8172C171.344 84.6874 171.382 84.5581 171.444 84.4293C171.507 84.3105 171.599 84.2073 171.721 84.1197C171.842 84.0321 172.008 83.9904 172.218 83.9946C172.268 83.9956 172.313 83.9965 172.353 83.9973C172.403 84.0083 172.453 84.0193 172.503 84.0303L172.531 82.6053L172.351 82.6017C171.981 82.5943 171.694 82.6886 171.49 82.8846C171.286 83.0806 171.136 83.3127 171.041 83.5809C170.945 83.8591 170.885 84.143 170.859 84.4326C170.843 84.7224 170.833 84.9623 170.83 85.1523ZM160.855 81.9216L170.125 82.107L170.152 80.742L159.652 80.532L159.625 81.897L168.876 88.3095L159.501 88.122L159.473 89.487L169.973 89.697L170.001 88.332L160.855 81.9216Z" fill="#F08A6B"/>
<path d="M162.442 104.586C162.209 104.526 161.979 104.513 161.753 104.548C161.527 104.583 161.316 104.658 161.121 104.773C160.926 104.888 160.758 105.036 160.619 105.218C160.476 105.409 160.374 105.625 160.311 105.868C160.251 106.101 160.239 106.33 160.274 106.556C160.306 106.792 160.38 107.008 160.495 107.203C160.61 107.398 160.758 107.566 160.939 107.705C161.118 107.855 161.324 107.96 161.557 108.02C161.799 108.082 162.04 108.092 162.278 108.05C162.514 108.018 162.729 107.944 162.925 107.829C163.12 107.714 163.289 107.561 163.431 107.37C163.571 107.189 163.671 106.982 163.731 106.749C163.793 106.507 163.808 106.267 163.776 106.031C163.741 105.805 163.666 105.595 163.551 105.399C163.436 105.204 163.283 105.035 163.092 104.893C162.901 104.751 162.684 104.648 162.442 104.586Z" fill="#F08A6B"/>
<path d="M158.096 129.58L162.506 121.717L153.348 116.58L152.681 117.771L161.119 122.504L158.044 127.986L149.606 123.252L148.938 124.443L158.096 129.58Z" fill="#F08A6B"/>
<path d="M148.75 134.328C148.347 133.941 147.842 133.603 147.237 133.312C146.631 133.036 145.975 132.877 145.269 132.836C144.563 132.794 143.835 132.905 143.086 133.168C142.344 133.438 141.632 133.929 140.949 134.642C140.486 135.124 140.127 135.615 139.869 136.114C139.612 136.627 139.436 137.135 139.341 137.638C139.239 138.148 139.207 138.643 139.245 139.121C139.291 139.607 139.389 140.06 139.539 140.48C139.689 140.914 139.877 141.309 140.104 141.664C140.323 142.026 140.566 142.334 140.832 142.59C141.235 142.976 141.743 143.304 142.355 143.573C142.975 143.849 143.645 144 144.365 144.027C145.085 144.054 145.826 143.922 146.589 143.631C147.351 143.354 148.078 142.855 148.768 142.135C149.451 141.422 149.912 140.69 150.149 139.937C150.387 139.184 150.471 138.456 150.399 137.752C150.335 137.055 150.148 136.407 149.839 135.807C149.523 135.214 149.16 134.721 148.75 134.328ZM147.736 135.386C148.24 135.869 148.628 136.386 148.901 136.938C149.174 137.503 149.334 138.064 149.381 138.62C149.421 139.184 149.348 139.728 149.162 140.254C148.983 140.787 148.686 141.269 148.272 141.701C147.865 142.126 147.396 142.443 146.864 142.652C146.333 142.875 145.781 142.982 145.21 142.973C144.631 142.971 144.05 142.849 143.467 142.608C142.891 142.373 142.35 142.014 141.846 141.531C141.342 141.048 140.957 140.52 140.691 139.948C140.432 139.382 140.29 138.81 140.263 138.232C140.23 137.662 140.31 137.103 140.503 136.556C140.696 136.022 140.996 135.544 141.403 135.119C141.817 134.687 142.283 134.366 142.8 134.158C143.325 133.956 143.87 133.864 144.434 133.88C144.992 133.903 145.556 134.036 146.125 134.278C146.695 134.534 147.232 134.903 147.736 135.386Z" fill="#F08A6B"/>
<path d="M128.946 158.176L136.571 153.368L130.972 144.486L129.817 145.214L134.977 153.398L129.66 156.75L124.5 148.566L123.346 149.294L128.946 158.176Z" fill="#F08A6B"/>
<path d="M116.221 157.652C115.953 157.673 115.669 157.71 115.37 157.764C115.074 157.827 114.756 157.918 114.417 158.039C113.842 158.244 113.362 158.505 112.976 158.822C112.59 159.14 112.3 159.487 112.105 159.864C111.904 160.254 111.792 160.655 111.768 161.067C111.748 161.488 111.812 161.906 111.959 162.32C112.1 162.716 112.3 163.069 112.559 163.38C112.822 163.701 113.137 163.945 113.504 164.111C113.865 164.291 114.276 164.388 114.738 164.404C115.201 164.42 115.705 164.331 116.251 164.137L119.558 162.961L116.04 153.068L114.753 153.525L116.221 157.652ZM118.051 162.796L116.567 163.324C116.171 163.465 115.798 163.518 115.446 163.484C115.094 163.45 114.777 163.35 114.496 163.185C114.218 163.029 113.979 162.822 113.781 162.564C113.577 162.318 113.425 162.054 113.324 161.771C113.227 161.498 113.175 161.203 113.169 160.887C113.157 160.584 113.209 160.284 113.326 159.987C113.444 159.691 113.628 159.418 113.879 159.17C114.131 158.921 114.468 158.721 114.892 158.57C115.184 158.467 115.456 158.381 115.708 158.312C115.963 158.253 116.203 158.226 116.427 158.231L118.051 162.796Z" fill="#F08A6B"/>
<path d="M103.918 162.552C103.856 161.997 103.686 161.415 103.408 160.804C103.121 160.205 102.72 159.663 102.205 159.179C101.69 158.695 101.061 158.314 100.319 158.036C99.5775 157.767 98.7167 157.687 97.7366 157.796C97.0733 157.87 96.4832 158.016 95.9662 158.234C95.4404 158.462 94.98 158.739 94.5851 159.064C94.1803 159.389 93.8393 159.748 93.5621 160.139C93.286 160.541 93.071 160.951 92.917 161.369C92.7542 161.798 92.6458 162.221 92.5919 162.637C92.5281 163.055 92.5166 163.448 92.5573 163.814C92.6189 164.368 92.7982 164.945 93.0952 165.543C93.3933 166.151 93.8096 166.696 94.3442 167.178C94.8788 167.66 95.5317 168.034 96.3028 168.299C97.0651 168.575 97.9412 168.658 98.9312 168.548C99.9113 168.439 100.734 168.172 101.398 167.748C102.062 167.323 102.593 166.818 102.989 166.233C103.386 165.658 103.658 165.041 103.805 164.383C103.943 163.726 103.98 163.116 103.918 162.552ZM102.462 162.713C102.539 163.406 102.506 164.052 102.362 164.649C102.209 165.257 101.972 165.79 101.652 166.246C101.322 166.704 100.917 167.074 100.438 167.358C99.9592 167.652 99.4229 167.832 98.8289 167.898C98.2448 167.963 97.6822 167.905 97.141 167.724C96.591 167.555 96.0998 167.284 95.6675 166.911C95.2253 166.539 94.8579 166.074 94.5653 165.515C94.2738 164.966 94.0896 164.345 94.0126 163.652C93.9356 162.959 93.9785 162.308 94.1413 161.699C94.3052 161.099 94.562 160.569 94.9118 160.11C95.2517 159.651 95.6708 159.274 96.1691 158.978C96.6586 158.693 97.1954 158.518 97.7795 158.453C98.3735 158.387 98.9356 158.44 99.4658 158.611C99.9971 158.793 100.474 159.071 100.896 159.445C101.309 159.82 101.656 160.282 101.938 160.832C102.21 161.393 102.385 162.02 102.462 162.713Z" fill="#F08A6B"/>
<path d="M81.3057 168.233L76.3161 167.628L76.2171 168.445L82.558 169.213L83.818 158.818L80.4025 158.404C79.6204 158.309 78.9711 158.321 78.4545 158.439C77.928 158.556 77.5044 158.736 77.1837 158.978C76.8618 159.231 76.6254 159.523 76.4745 159.857C76.3137 160.189 76.2123 160.528 76.1703 160.875C76.1283 161.221 76.1457 161.575 76.2225 161.936C76.2894 162.295 76.4545 162.632 76.7179 162.945C76.9714 163.257 77.3404 163.528 77.8249 163.757C78.2983 163.996 78.9211 164.161 79.6933 164.255L81.7575 164.505L81.3057 168.233ZM82.3911 159.278L81.8367 163.852L79.8765 163.614C79.4904 163.567 79.1511 163.466 78.8586 163.31C78.5562 163.153 78.3136 162.958 78.1309 162.725C77.9383 162.49 77.8006 162.217 77.7178 161.906C77.6338 161.605 77.6122 161.285 77.653 160.949C77.6962 160.592 77.8039 160.284 77.9761 160.024C78.1483 159.763 78.3597 159.553 78.6102 159.392C78.8496 159.241 79.1238 159.133 79.4328 159.07C79.7319 159.006 80.0349 158.992 80.3418 159.03L82.3911 159.278Z" fill="#F08A6B"/>
<path d="M66.2591 166.722L67.7875 167.212L65.6376 158.537L66.4997 157.616C66.656 157.456 66.8284 157.328 67.0171 157.231C67.1962 157.131 67.4381 157.13 67.7428 157.227C67.9714 157.3 68.158 157.439 68.3027 157.643C68.4473 157.847 68.5556 158.05 68.6275 158.251L69.6532 157.115C69.5565 156.958 69.3949 156.791 69.1683 156.613C68.9352 156.423 68.6568 156.276 68.333 156.172C68.1902 156.126 68.038 156.093 67.8765 156.073C67.7054 156.05 67.5332 156.063 67.3599 156.112C67.177 156.159 66.9882 156.24 66.7934 156.356C66.5957 156.482 66.3859 156.661 66.164 156.895L59.2169 164.465L59.9597 164.704L64.4895 159.76L64.5467 159.778L66.2591 166.722Z" fill="#F08A6B"/>
<path d="M46.6901 159.535C46.535 159.443 46.33 159.328 46.075 159.19C45.8064 159.055 45.5329 158.957 45.2546 158.898C44.9676 158.833 44.6873 158.837 44.4134 158.907C44.1396 158.978 43.9088 159.173 43.721 159.492L43.6296 159.647L44.8704 160.378C44.8871 160.33 44.9082 160.284 44.9336 160.241C44.9453 160.201 44.9638 160.16 44.9892 160.117C45.0958 159.936 45.2183 159.817 45.3567 159.759C45.4952 159.701 45.6356 159.68 45.7781 159.694C45.912 159.703 46.0374 159.736 46.1545 159.794C46.2716 159.851 46.3689 159.903 46.4465 159.948C46.524 159.994 46.6206 160.057 46.7361 160.136C46.843 160.211 46.9373 160.307 47.0189 160.425C47.0918 160.537 47.1366 160.668 47.1532 160.817C47.1699 160.966 47.1249 161.131 47.0183 161.312C46.9929 161.355 46.9701 161.394 46.9498 161.429C46.9158 161.467 46.8818 161.505 46.8478 161.543L48.0756 162.266L48.167 162.111C48.3548 161.792 48.4133 161.496 48.3425 161.222C48.2716 160.948 48.1427 160.704 47.9558 160.489C47.7602 160.269 47.5426 160.077 47.3028 159.913C47.058 159.757 46.8538 159.631 46.6901 159.535ZM54.394 152.426L49.6891 160.413L50.8652 161.106L56.1944 152.059L55.0182 151.366L44.8964 156.285L49.6546 148.207L48.4785 147.514L43.1493 156.561L44.3254 157.254L54.394 152.426Z" fill="#F08A6B"/>
<path d="M33.7994 142.321C33.9698 142.151 34.0976 141.959 34.1828 141.746C34.268 141.533 34.3106 141.313 34.3106 141.086C34.3106 140.859 34.268 140.639 34.1828 140.426C34.0905 140.206 33.9556 140.007 33.7781 139.829C33.6077 139.659 33.416 139.531 33.203 139.446C32.9829 139.354 32.7592 139.307 32.532 139.307C32.3048 139.307 32.0847 139.35 31.8717 139.435C31.6516 139.513 31.4564 139.638 31.286 139.808C31.1085 139.986 30.9771 140.188 30.8919 140.415C30.7996 140.635 30.7535 140.859 30.7535 141.086C30.7535 141.313 30.7996 141.537 30.8919 141.757C30.9771 141.97 31.1049 142.162 31.2753 142.332C31.4528 142.51 31.6516 142.644 31.8717 142.737C32.0847 142.822 32.3048 142.865 32.532 142.865C32.7592 142.865 32.9829 142.818 33.203 142.726C33.4231 142.634 33.6219 142.499 33.7994 142.321Z" fill="#F08A6B"/>
<path d="M14.5257 126.063L19.1233 133.816L28.1533 128.461L27.4572 127.287L19.1367 132.221L15.9313 126.816L24.2518 121.882L23.5557 120.708L14.5257 126.063Z" fill="#F08A6B"/>
<path d="M15.0432 115.546C15.5813 115.391 16.1287 115.124 16.6855 114.745C17.2299 114.359 17.6979 113.87 18.0893 113.279C18.4808 112.687 18.7512 112 18.9004 111.218C19.0401 110.439 18.9728 109.574 18.6986 108.623C18.513 107.979 18.2686 107.42 17.9653 106.945C17.6496 106.464 17.2977 106.055 16.9095 105.72C16.5186 105.374 16.1059 105.098 15.6713 104.89C15.2272 104.685 14.7852 104.542 14.3455 104.461C13.8933 104.372 13.4564 104.337 13.0348 104.354C12.6104 104.362 12.2204 104.417 11.8649 104.52C11.3268 104.675 10.7869 104.95 10.2452 105.346C9.69399 105.744 9.2254 106.249 8.83948 106.859C8.45356 107.47 8.19493 108.18 8.06358 108.988C7.91986 109.789 7.98649 110.67 8.26347 111.631C8.53768 112.582 8.94127 113.35 9.47423 113.935C10.0072 114.521 10.5968 114.96 11.2431 115.252C11.8798 115.547 12.5361 115.712 13.212 115.746C13.8851 115.771 14.4955 115.704 15.0432 115.546ZM14.636 114.133C13.9634 114.327 13.3194 114.404 12.7039 114.363C12.076 114.315 11.5091 114.171 11.003 113.932C10.4942 113.683 10.0587 113.345 9.69643 112.919C9.32456 112.496 9.05553 111.996 8.88934 111.419C8.72592 110.852 8.6875 110.286 8.77408 109.719C8.84829 109.146 9.03316 108.614 9.32871 108.123C9.62148 107.623 10.0195 107.18 10.5227 106.796C11.0163 106.414 11.5994 106.126 12.272 105.932C12.9446 105.739 13.5962 105.67 14.2269 105.728C14.8479 105.788 15.4156 105.952 15.9299 106.221C16.4415 106.479 16.886 106.83 17.2634 107.272C17.6285 107.708 17.8927 108.21 18.0561 108.777C18.2223 109.353 18.2655 109.918 18.1858 110.472C18.0964 111.029 17.9026 111.548 17.6043 112.029C17.3032 112.501 16.9045 112.923 16.4081 113.295C15.8993 113.66 15.3086 113.94 14.636 114.133Z" fill="#F08A6B"/>
<path d="M4.56262 86.3391L4.84893 95.3495L15.3436 95.016L15.3003 93.6517L5.63017 93.959L5.43056 87.6772L15.1007 87.3699L15.0573 86.0056L4.56262 86.3391Z" fill="#F08A6B"/>
<path d="M11.5143 75.5848C11.6323 75.3433 11.7443 75.0803 11.8503 74.7958C11.9465 74.5094 12.0288 74.1898 12.0972 73.837C12.2131 73.2392 12.2324 72.6938 12.1551 72.2009C12.0778 71.708 11.9265 71.2821 11.7012 70.9232C11.468 70.5526 11.1804 70.2528 10.8384 70.0238C10.4866 69.7929 10.0951 69.6357 9.6639 69.5521C9.2523 69.4723 8.847 69.4649 8.448 69.5299C8.0392 69.593 7.67005 69.74 7.34055 69.971C7.00315 70.1903 6.7103 70.4945 6.462 70.8836C6.2137 71.2727 6.03445 71.7515 5.92425 72.3199L5.25735 75.7597L15.5473 77.7547L15.8067 76.417L11.5143 75.5848ZM6.1635 74.5474L6.46275 73.0039C6.54255 72.5923 6.68635 72.2439 6.89415 71.9588C7.10195 71.6737 7.3483 71.452 7.6332 71.2937C7.9083 71.1335 8.20725 71.0339 8.53005 70.9948C8.84495 70.944 9.1494 70.9471 9.4434 71.0041C9.7276 71.0592 10.0072 71.1642 10.2822 71.3192C10.5493 71.4625 10.7805 71.6599 10.9758 71.9113C11.1711 72.1627 11.3118 72.4594 11.398 72.8015C11.4842 73.1436 11.4846 73.5352 11.3991 73.9762C11.3402 74.28 11.2762 74.5574 11.2072 74.8084C11.1284 75.0575 11.0299 75.2773 10.9116 75.4679L6.1635 74.5474Z" fill="#F08A6B"/>
<path d="M13.164 62.5461C13.6792 62.7701 14.2732 62.9135 14.946 62.9763C15.6136 63.0259 16.2878 62.9471 16.9686 62.7399C17.6494 62.5327 18.2974 62.1745 18.9126 61.6653C19.5186 61.1521 20.0196 60.4401 20.4156 59.5293C20.6836 58.9129 20.852 58.3243 20.9208 57.7635C20.9844 57.1895 20.9734 56.6487 20.8878 56.1411C20.8062 55.6243 20.6638 55.1467 20.4606 54.7083C20.2482 54.2659 19.998 53.8727 19.71 53.5287C19.4168 53.1715 19.1016 52.8649 18.7644 52.6089C18.4312 52.3437 18.0944 52.1371 17.754 51.9891C17.2388 51.7651 16.6454 51.6329 15.9738 51.5925C15.293 51.5481 14.6082 51.6387 13.9194 51.8643C13.2306 52.0899 12.5772 52.4731 11.9592 53.0139C11.336 53.5415 10.8244 54.2653 10.4244 55.1853C10.0284 56.0961 9.84936 56.9481 9.88736 57.7413C9.92536 58.5345 10.1008 59.2507 10.4136 59.8899C10.7172 60.5251 11.1194 61.0719 11.6202 61.5303C12.125 61.9795 12.6396 62.3181 13.164 62.5461ZM13.752 61.1937C13.108 60.9137 12.5612 60.5611 12.1116 60.1359C11.6568 59.6975 11.3102 59.2241 11.0718 58.7157C10.8374 58.1981 10.7164 57.6587 10.7088 57.0975C10.692 56.5323 10.8036 55.9737 11.0436 55.4217C11.2796 54.8789 11.612 54.4163 12.0408 54.0339C12.4644 53.6383 12.9474 53.3451 13.4898 53.1543C14.0362 52.9543 14.6268 52.8665 15.2616 52.8909C15.8872 52.9113 16.522 53.0615 17.166 53.3415C17.81 53.6215 18.3574 53.9853 18.8082 54.4329C19.2498 54.8765 19.5838 55.3663 19.8102 55.9023C20.0406 56.4291 20.1602 56.9843 20.169 57.5679C20.1726 58.1383 20.0564 58.6949 19.8204 59.2377C19.5804 59.7897 19.2526 60.2543 18.837 60.6315C18.4122 61.0047 17.9306 61.2821 17.3922 61.4637C16.8578 61.6361 16.2798 61.7075 15.6582 61.6779C15.0314 61.6351 14.396 61.4737 13.752 61.1937Z" fill="#F08A6B"/>
<path d="M19.7526 40.1956L22.7766 36.1636L22.1166 35.6686L18.2736 40.7926L26.6736 47.0926L28.7436 44.3326C29.2176 43.7006 29.5326 43.1306 29.6886 42.6226C29.8506 42.1066 29.9066 41.6486 29.8566 41.2486C29.7986 40.8426 29.6626 40.4906 29.4486 40.1926C29.2406 39.8866 28.9966 39.6286 28.7166 39.4186C28.4366 39.2086 28.1206 39.0466 27.7686 38.9326C27.4226 38.8106 27.0476 38.7856 26.6436 38.8576C26.2456 38.9216 25.8256 39.1066 25.3836 39.4126C24.9396 39.7046 24.4836 40.1626 24.0156 40.7866L22.7646 42.4546L19.7526 40.1956ZM26.9886 45.6226L23.2926 42.8506L24.4806 41.2666C24.7146 40.9546 24.9726 40.7106 25.2546 40.5346C25.5426 40.3506 25.8336 40.2376 26.1276 40.1956C26.4276 40.1456 26.7336 40.1626 27.0456 40.2466C27.3496 40.3246 27.6376 40.4656 27.9096 40.6696C28.1976 40.8856 28.4116 41.1336 28.5516 41.4136C28.6916 41.6936 28.7686 41.9826 28.7826 42.2806C28.7946 42.5646 28.7506 42.8566 28.6506 43.1566C28.5566 43.4486 28.4166 43.7186 28.2306 43.9666L26.9886 45.6226Z" fill="#F08A6B"/>
<path d="M28.8637 27.9264L27.6687 28.9979L36.2413 31.5259L36.6002 32.7352C36.6593 32.9508 36.6831 33.1646 36.6715 33.3764C36.6674 33.5815 36.5462 33.7909 36.308 34.0045C36.1293 34.1648 35.9154 34.2558 35.6664 34.2776C35.4173 34.2994 35.1877 34.2905 34.9774 34.2507L35.4396 35.7099C35.6239 35.7058 35.85 35.6508 36.1178 35.545C36.3997 35.44 36.6672 35.274 36.9204 35.047C37.0321 34.9469 37.1374 34.8323 37.2365 34.7031C37.3431 34.5673 37.4188 34.4121 37.4637 34.2375C37.5161 34.0562 37.5414 33.8522 37.5396 33.6255C37.5311 33.3914 37.4822 33.1196 37.3928 32.8102L34.3696 22.9897L33.7889 23.5104L35.766 29.9173L35.7213 29.9573L28.8637 27.9264Z" fill="#F08A6B"/>
<path d="M44.9645 14.6456C45.1216 14.5578 45.3243 14.4387 45.5725 14.2885C45.8246 14.1246 46.0465 13.9375 46.2383 13.7272C46.4388 13.512 46.5775 13.2683 46.6544 12.9962C46.7314 12.724 46.6796 12.4264 46.499 12.1035L46.4112 11.9464L45.1543 12.6491C45.1874 12.6879 45.2162 12.7291 45.2406 12.7727C45.2689 12.8027 45.2952 12.8396 45.3196 12.8832C45.4221 13.0665 45.4633 13.2325 45.4433 13.3812C45.4233 13.5298 45.3712 13.6621 45.287 13.7779C45.2116 13.8888 45.1196 13.9804 45.011 14.0525C44.9024 14.1247 44.8088 14.1827 44.7303 14.2267C44.6517 14.2706 44.5489 14.3223 44.4218 14.3819C44.3035 14.4366 44.1729 14.4695 44.0302 14.4806C43.8961 14.4868 43.7606 14.4595 43.6234 14.3987C43.4863 14.3378 43.3665 14.2158 43.2641 14.0325C43.2396 13.9889 43.2177 13.9496 43.1982 13.9147C43.1825 13.8661 43.1668 13.8176 43.1512 13.7691L41.9074 14.4645L41.9952 14.6216C42.1758 14.9446 42.4021 15.1445 42.6743 15.2215C42.9465 15.2985 43.2224 15.3103 43.5019 15.2571C43.7903 15.199 44.0659 15.108 44.3287 14.9839C44.5867 14.8511 44.7987 14.7383 44.9645 14.6456ZM47.217 24.8832L42.6931 16.792L41.5017 17.4582L46.6258 26.6229L47.8173 25.9568L48.6756 14.7361L53.2507 22.9189L54.4421 22.2528L49.318 13.088L48.1265 13.7541L47.217 24.8832Z" fill="#F08A6B"/>
<path d="M66.3856 12.3379C66.4456 12.5703 66.5454 12.7769 66.685 12.9578C66.8246 13.1386 66.9919 13.2865 67.1868 13.4015C67.3817 13.5164 67.592 13.5912 67.8179 13.6259C68.0534 13.6581 68.2922 13.6429 68.5342 13.5805C68.7666 13.5205 68.9733 13.4207 69.1541 13.2811C69.3446 13.139 69.4974 12.9704 69.6123 12.7755C69.7273 12.5806 69.8021 12.3703 69.8367 12.1444C69.8811 11.9161 69.8733 11.6858 69.8133 11.4534C69.7509 11.2113 69.6437 10.9963 69.4919 10.8082C69.3498 10.6177 69.1813 10.4649 68.9864 10.35C68.7915 10.2351 68.5763 10.1615 68.3408 10.1293C68.1149 10.0947 67.8858 10.1073 67.6534 10.1673C67.4114 10.2297 67.1951 10.332 67.0045 10.4741C66.8237 10.6138 66.6758 10.781 66.5608 10.9759C66.4459 11.1708 66.3723 11.386 66.3402 11.6216C66.308 11.8571 66.3231 12.0959 66.3856 12.3379Z" fill="#F08A6B"/>
</svg>
