<svg width="61" height="47" viewBox="0 0 61 47" fill="none" xmlns="http://www.w3.org/2000/svg">
<path d="M60.1019 15.077C59.8789 14.8483 59.5689 14.7458 59.2499 14.7878L52.8099 15.7498L52.0309 6.61369L41.5099 11.6453C40.629 12.0351 39.755 12.5161 38.897 13.0751C38.369 11.9551 37.766 10.8997 37.075 9.95001L30.399 0.172852L23.74 9.9254C23.042 10.8854 22.434 11.9489 21.902 13.0761C21.046 12.5171 20.177 12.0392 19.316 11.6587L8.76798 6.61369L7.98898 15.7498L1.54899 14.7878C1.23399 14.7458 0.919987 14.8494 0.696987 15.077C0.472988 15.3068 0.368988 15.6298 0.414988 15.9509L1.82699 25.8942C3.14099 35.1411 11.545 43.7593 20.559 45.1049L29.609 46.4577L29.614 46.4885L29.665 46.4669L30.254 46.5551C30.303 46.5623 30.351 46.5664 30.399 46.5664C30.447 46.5664 30.495 46.5623 30.544 46.5551L31.155 46.4638L31.196 46.4813L31.199 46.4577L40.238 45.1059C49.2539 43.7593 57.6569 35.1411 58.9689 25.8952L60.3819 15.9519C60.4299 15.6298 60.3259 15.3068 60.1019 15.077ZM42.3289 13.5181L50.2879 9.71104L50.8289 16.0462L49.5549 16.236C49.0509 16.3109 48.5479 16.4175 48.0449 16.5375C47.9339 16.5642 47.8229 16.5908 47.7119 16.6206C46.7019 16.8821 45.6989 17.2339 44.708 17.6698C44.632 17.7036 44.5569 17.7375 44.4809 17.7713C43.4869 18.2236 42.51 18.761 41.556 19.3805C41.502 19.4154 41.449 19.4513 41.395 19.4862C41.23 19.5959 41.063 19.6995 40.899 19.8133C40.834 19.359 40.754 18.9098 40.665 18.4626C40.639 18.3313 40.606 18.2021 40.578 18.0718C40.506 17.7395 40.429 17.4093 40.344 17.0821C40.291 16.876 40.233 16.6739 40.175 16.4708C40.108 16.2401 40.037 16.0114 39.964 15.7827C39.885 15.5365 39.806 15.2914 39.72 15.0504C39.712 15.0288 39.706 15.0063 39.698 14.9837C40.552 14.4042 41.43 13.914 42.3289 13.5181ZM10.512 9.71104L18.498 13.5314C19.375 13.9181 20.248 14.4063 21.102 14.9847C21.093 15.0104 21.085 15.037 21.076 15.0637C20.994 15.2934 20.918 15.5283 20.843 15.7622C20.765 16.0011 20.691 16.2421 20.621 16.4842C20.565 16.6811 20.509 16.877 20.457 17.076C20.37 17.4093 20.291 17.7467 20.218 18.0852C20.191 18.2113 20.16 18.3354 20.134 18.4626C20.044 18.9098 19.965 19.36 19.899 19.8154C19.738 19.7036 19.574 19.601 19.412 19.4944C19.354 19.4554 19.296 19.4174 19.237 19.3795C18.285 18.761 17.31 18.2257 16.318 17.7734C16.242 17.7385 16.167 17.7057 16.091 17.6718C15.101 17.2349 14.097 16.8831 13.087 16.6216C12.976 16.5929 12.865 16.5652 12.753 16.5385C12.25 16.4185 11.747 16.3119 11.243 16.237L9.96998 16.0462L10.512 9.71104ZM20.849 43.0762C12.647 41.8517 5.00198 34.0098 3.80598 25.5978L2.58699 17.0155L7.81498 17.7959L10.956 18.2646C11.414 18.3334 11.87 18.4298 12.323 18.5385C12.488 18.5785 12.654 18.6257 12.819 18.6708C13.099 18.7467 13.377 18.8308 13.654 18.921C13.863 18.9898 14.073 19.0605 14.282 19.1374C14.483 19.2113 14.681 19.2944 14.881 19.3764C16.677 20.1169 18.435 21.161 20.085 22.4963C23.25 25.0593 25.689 28.4469 27.022 31.9986C27.047 32.0653 27.074 32.1319 27.098 32.1986C27.278 32.696 27.43 33.1965 27.566 33.6981C27.593 33.7996 27.627 33.8991 27.652 34.0006C27.798 34.5821 27.917 35.1637 28 35.7442L29.22 44.3265L20.849 43.0762ZM31.18 33.6222C31.033 34.2273 30.91 34.8355 30.823 35.4488L30.612 36.9349L30.595 36.7657L30.376 38.262L29.976 35.4488C29.889 34.8355 29.766 34.2262 29.619 33.6211C29.549 33.3309 29.456 33.0437 29.372 32.7555C29.285 32.4581 29.204 32.1596 29.103 31.8653C28.974 31.4817 28.823 31.1043 28.671 30.7269C28.598 30.5463 28.528 30.3648 28.45 30.1864C28.261 29.7505 28.055 29.3218 27.837 28.8941C27.785 28.7926 27.733 28.692 27.679 28.5915C27.429 28.1197 27.164 27.6541 26.88 27.1957C26.863 27.169 26.846 27.1423 26.829 27.1157C25.686 25.288 24.275 23.5824 22.634 22.0563C22.43 21.8656 22.229 21.6738 22.02 21.4902C21.93 21.4112 21.848 21.3251 21.757 21.2481C21.785 20.9559 21.815 20.6635 21.853 20.3743C21.873 20.2215 21.887 20.0656 21.911 19.9138C21.992 19.3836 22.09 18.8585 22.207 18.3405C22.227 18.2523 22.252 18.1672 22.273 18.08C22.381 17.6288 22.5 17.1816 22.635 16.7416C22.666 16.639 22.7 16.5385 22.733 16.437C22.877 15.9919 23.032 15.5529 23.204 15.1211C23.781 13.6668 24.499 12.3151 25.363 11.1274L30.401 3.75019L35.456 11.1531C36.192 12.1653 36.829 13.2966 37.359 14.516L37.404 14.6268C37.47 14.7817 37.528 14.9437 37.591 15.1017C37.766 15.5416 37.925 15.9898 38.071 16.4432C38.103 16.5416 38.136 16.6401 38.166 16.7396C38.301 17.1785 38.419 17.6236 38.526 18.0739C38.547 18.1641 38.573 18.2523 38.594 18.3426C38.711 18.8595 38.808 19.3826 38.889 19.9118C38.913 20.0666 38.927 20.2246 38.948 20.3805C38.986 20.6687 39.016 20.9589 39.043 21.2502C38.949 21.3292 38.866 21.4174 38.774 21.4984C38.573 21.6748 38.38 21.8594 38.184 22.042C36.533 23.5742 35.114 25.288 33.966 27.1259C33.952 27.1485 33.937 27.1711 33.923 27.1936C33.636 27.6562 33.37 28.1239 33.118 28.5997C33.067 28.6961 33.016 28.7936 32.967 28.89C32.747 29.3197 32.54 29.7525 32.35 30.1915C32.273 30.3669 32.205 30.5443 32.133 30.7217C31.98 31.1033 31.828 31.4827 31.698 31.8694C31.599 32.1607 31.518 32.456 31.432 32.7504C31.345 33.0386 31.25 33.3278 31.18 33.6222ZM56.9929 25.5978C55.7979 34.0098 48.1529 41.8506 39.951 43.0762L31.583 44.3275L32.802 35.7452C32.884 35.1647 33.004 34.5832 33.15 34.0027C33.176 33.9001 33.21 33.7986 33.237 33.696C33.372 33.1965 33.523 32.6971 33.703 32.2017C33.727 32.134 33.754 32.0673 33.78 31.9996C33.989 31.4417 34.22 30.8869 34.483 30.3402C35.89 27.409 38.042 24.6686 40.703 22.5097L40.716 22.4994C42.366 21.163 44.125 20.119 45.9219 19.3785C46.1199 19.2974 46.3179 19.2144 46.5179 19.1405C46.7279 19.0626 46.9379 18.9918 47.1479 18.9231C47.4239 18.8328 47.7009 18.7498 47.9799 18.6739C48.1459 18.6287 48.3119 18.5805 48.4779 18.5405C48.9319 18.4318 49.3869 18.3354 49.8449 18.2667L52.9859 17.798L58.2139 17.0175L56.9929 25.5978Z" fill="#F08A6B"/>
</svg>
