<svg width="50" height="51" viewBox="0 0 50 51" fill="none" xmlns="http://www.w3.org/2000/svg">
<g clip-path="url(#clip0)">
<path d="M34.8139 21.4928C35.1393 21.8183 35.1393 22.3458 34.8139 22.6713L26.6542 30.831C26.4914 30.9937 26.2782 31.0751 26.0649 31.0751C25.3291 31.0751 24.9491 30.1791 25.4756 29.6525L33.6353 21.4928C33.9607 21.1675 34.4883 21.1675 34.8139 21.4928ZM34.4966 28.3205C35.4059 28.3205 36.1458 29.0605 36.1458 29.9699C36.1458 30.8792 35.4059 31.6191 34.4966 31.6191C33.5872 31.6191 32.8472 30.8792 32.8472 29.9699C32.8472 29.0605 33.5872 28.3205 34.4966 28.3205ZM34.4792 29.9699C34.4792 29.9891 34.5139 29.9891 34.5139 29.9699C34.5139 29.9507 34.4792 29.9507 34.4792 29.9699ZM27.9861 21.8101C27.9861 22.7195 27.2461 23.4595 26.3368 23.4595C25.4274 23.4595 24.6875 22.7195 24.6875 21.8101C24.6875 20.9007 25.4274 20.1608 26.3368 20.1608C27.2461 20.1608 27.9861 20.9007 27.9861 21.8101ZM26.3368 21.7928C26.3136 21.7928 26.3142 21.8275 26.3368 21.8275C26.3597 21.8275 26.3598 21.7928 26.3368 21.7928ZM46.6667 9.43164H20.1562C19.696 9.43164 19.3229 9.80477 19.3229 10.265C19.3229 10.7252 19.696 11.0983 20.1562 11.0983H46.6667C47.5856 11.0983 48.3333 11.846 48.3333 12.765V39.015C48.3333 39.9339 47.5856 40.6816 46.6667 40.6816H15.2083V38.9174C15.2083 38.4572 14.8352 38.084 14.375 38.084C13.9148 38.084 13.5417 38.4572 13.5417 38.9174V40.6816H3.33333C2.41438 40.6816 1.66667 39.9339 1.66667 39.015V34.4251C1.66667 33.8089 1.99479 33.251 2.52323 32.9689C8.18073 29.9488 8.17917 21.83 2.52312 18.8108C1.99479 18.5289 1.66667 17.971 1.66667 17.3549V12.765C1.66667 11.846 2.41438 11.0983 3.33333 11.0983H13.5417V12.8626C13.5417 13.3228 13.9148 13.6959 14.375 13.6959C14.8352 13.6959 15.2083 13.3228 15.2083 12.8626V10.265C15.2083 9.80477 14.8352 9.43164 14.375 9.43164H3.33333C1.49531 9.43164 0 10.927 0 12.765V17.3549C0 18.5877 0.666146 19.709 1.73833 20.2813C6.22115 22.674 6.22021 29.1064 1.73844 31.4988C0.666146 32.071 0 33.1924 0 34.4252V39.015C0 40.853 1.49531 42.3483 3.33333 42.3483H46.6667C48.5047 42.3483 50 40.853 50 39.015V12.765C50 10.927 48.5047 9.43164 46.6667 9.43164ZM15.2083 19.1592C15.2083 18.699 14.8352 18.3259 14.375 18.3259C13.9148 18.3259 13.5417 18.699 13.5417 19.1592V22.4214C13.5417 22.8816 13.9148 23.2548 14.375 23.2548C14.8352 23.2548 15.2083 22.8816 15.2083 22.4214V19.1592ZM14.375 28.5252C13.9148 28.5252 13.5417 28.8983 13.5417 29.3585V32.6207C13.5417 33.0809 13.9148 33.454 14.375 33.454C14.8352 33.454 15.2083 33.0809 15.2083 32.6207V29.3585C15.2083 28.8983 14.8352 28.5252 14.375 28.5252Z" fill="#F08A6B"/>
</g>
<defs>
<clipPath id="clip0">
<rect width="50" height="50" fill="white" transform="translate(0 0.890137)"/>
</clipPath>
</defs>
</svg>
