<svg width="50" height="51" viewBox="0 0 50 51" fill="none" xmlns="http://www.w3.org/2000/svg">
<g clip-path="url(#clip0)">
<path d="M45.2652 22.9613C43.1279 19.4376 40.3864 17.8475 36.8856 18.0986C33.9195 18.3116 31.7886 19.456 30.3715 21.5973C29.8771 22.3443 29.4286 23.1241 28.9949 23.8783C28.6554 24.4688 28.3042 25.0795 27.9396 25.658C27.3246 26.6337 26.7132 27.5788 25.9953 28.4171C25.2705 29.2638 24.3697 29.2326 23.7416 29.0574C23.2846 28.9299 22.8286 28.7568 22.3579 28.566C23.4444 27.747 24.1383 26.6862 24.5925 25.8963C25.6677 24.0262 26.7951 21.4983 25.9632 18.5242C24.9438 14.879 22.3591 12.7634 18.6853 12.5671C16.0812 12.428 13.4505 12.9892 10.6447 14.2832C9.57272 14.7775 8.52204 15.4458 7.43248 16.3263C6.80436 16.834 6.64459 17.7424 7.0609 18.4392L9.29372 22.1763C9.77839 22.9876 10.8207 23.293 11.6753 22.8673C13.6136 21.9023 15.6179 20.9046 17.8076 20.5106C19.4526 20.2146 20.5506 20.7005 21.368 22.0856C21.5157 22.3361 21.5219 22.6419 21.3838 22.884C20.8832 23.7616 20.2171 24.3461 19.3475 24.6711C18.2193 25.0927 16.9744 25.2205 15.4299 25.0732C14.9612 25.0286 14.4946 24.989 14.0178 24.9488C13.5428 24.9092 13.0857 25.0863 12.7621 25.4353C12.4385 25.7841 12.2962 26.2533 12.3714 26.723C12.7244 28.9252 13.2077 31.9414 16.2571 33.259C16.8932 33.534 17.5389 33.4248 18.0578 33.3372C18.3179 33.2933 18.5632 33.2518 18.7607 33.2631C20.2315 33.3474 21.153 33.793 21.7484 34.7079C22.4883 35.8446 22.685 37.2218 22.2882 38.4865C21.9009 39.7205 20.9828 40.7111 19.7691 41.204C19.0206 41.508 18.1837 41.7103 17.3489 41.7889C14.4986 42.0574 11.9602 41.4874 9.80505 40.0951C8.29733 39.1212 7.49616 37.5312 6.91139 36.1042C6.36031 34.7593 5.8857 33.3419 5.42682 31.9712C5.20611 31.3116 4.97769 30.6296 4.74117 29.9565L4.72994 29.9257C4.5232 29.3794 3.97535 29.0733 3.39742 29.1819C2.82242 29.2898 2.42447 29.771 2.42974 30.3563C2.42974 30.3583 2.42984 30.3654 2.42984 30.3675L2.43374 30.6335C2.44742 31.5881 2.46167 32.5752 2.55435 33.5549C3.0066 38.3355 4.58345 42.1677 7.37496 45.2705C10.2084 48.4199 13.5681 50.0045 17.3951 50.0043C18.4016 50.0043 19.4412 49.8946 20.5112 49.6744C22.6661 49.2319 24.4983 47.9125 26.1128 45.6407C28.5369 42.2295 28.9185 38.3473 27.2793 33.7722C27.2222 33.6127 27.157 33.4476 27.0807 33.2676C27.0637 33.2274 27.0673 33.1883 27.0919 33.1513C27.1171 33.1133 27.1528 33.0942 27.1981 33.0942C27.1982 33.0942 27.1984 33.0942 27.1985 33.0942C29.1151 33.1001 29.5717 33.0903 29.7441 33.0701C31.2621 32.8914 32.5185 32.1149 33.4779 30.7618C33.8486 30.2392 34.2044 29.7011 34.5484 29.1807C34.9522 28.57 35.3697 27.9387 35.8031 27.3459C35.9462 27.1501 36.0879 26.9512 36.2299 26.7518C36.8242 25.9167 37.3858 25.128 38.0795 24.5281C38.7953 23.9089 39.7118 23.6876 40.5935 23.9209C41.5145 24.1646 42.2335 24.8429 42.5662 25.7818C43.0191 27.0603 43.2105 28.463 43.1515 30.0704C43.028 33.4339 41.0496 36.235 37.9887 37.3807C35.7474 38.2196 33.7799 37.8002 32.4487 36.2C31.9117 35.5547 31.5523 34.9608 31.3176 34.331C31.1397 33.8539 30.6792 33.5576 30.169 33.595C29.6569 33.6322 29.2406 33.9938 29.1327 34.4945C29.1325 34.4955 29.1323 34.4965 29.132 34.4975L29.1299 34.5074C28.8296 35.9185 28.8762 37.4345 29.2765 39.2785C29.8912 42.1106 31.2698 44.2159 33.2636 45.3669C35.2605 46.5198 37.7347 46.675 40.4194 45.8157C42.9122 45.0175 44.7671 43.128 46.0899 40.0387C46.8754 38.2042 47.3388 36.1321 47.5066 33.7036C47.8008 29.4469 47.0676 25.933 45.2652 22.9613ZM45.8939 33.5928C45.7388 35.8373 45.3168 37.7379 44.604 39.403C43.4609 42.0722 41.9746 43.6208 39.9266 44.2765C37.6881 44.9933 35.6638 44.8863 34.0723 43.9675C32.4841 43.0506 31.3722 41.3108 30.8568 38.9364C30.6495 37.9809 30.5487 37.1352 30.5533 36.359C30.7452 36.6506 30.9623 36.9418 31.2062 37.235C32.9848 39.3729 35.6635 39.9783 38.5559 38.8958C42.2396 37.5171 44.6198 34.1585 44.7678 30.1307C44.8343 28.3157 44.6129 26.717 44.0907 25.2429C43.5844 23.8138 42.4319 22.7356 41.0076 22.3589C39.6007 21.9866 38.1485 22.3321 37.0223 23.3063C36.1819 24.0332 35.5369 24.9391 34.9132 25.8149C34.7751 26.0087 34.6375 26.2022 34.4984 26.3926C34.0424 27.016 33.6143 27.6636 33.2002 28.2899C32.8633 28.7994 32.515 29.3263 32.1596 29.8275C31.4665 30.8049 30.6146 31.3406 29.5614 31.4648C29.3365 31.4852 27.7316 31.48 27.2045 31.4782C26.6148 31.4766 26.0711 31.7678 25.7457 32.2577C25.4209 32.7467 25.3641 33.3607 25.5933 33.9007C25.6574 34.0518 25.7113 34.1885 25.7578 34.3184C27.2055 38.3592 26.8906 41.7567 24.7955 44.705C23.4293 46.6275 21.9218 47.7352 20.1866 48.0915C15.6509 49.023 11.7449 47.7102 8.57751 44.1896C6.02633 41.3539 4.58287 37.8256 4.16451 33.4029C4.15953 33.3517 4.15504 33.3002 4.15064 33.2486C4.5397 34.4023 4.9483 35.5763 5.41598 36.7175C6.05621 38.2796 7.03395 40.2296 8.92829 41.4534C11.3961 43.0475 14.2805 43.7021 17.5011 43.3987C18.4906 43.3055 19.4855 43.0647 20.3781 42.7022C22.0406 42.0269 23.2992 40.6667 23.8313 38.9705C24.3729 37.2437 24.1079 35.3687 23.104 33.826C22.2244 32.4745 20.8342 31.7624 18.8537 31.6489C18.4746 31.6273 18.1105 31.6888 17.7891 31.7431C17.4327 31.8033 17.096 31.8601 16.8988 31.775C14.852 30.8906 14.3879 29.0594 13.9845 26.5688C14.4213 26.6055 14.8498 26.6423 15.277 26.683C17.0744 26.8542 18.5477 26.6962 19.9139 26.1858C21.1354 25.7295 22.1025 24.8882 22.7886 23.6853C23.2134 22.9406 23.2027 22.013 22.7607 21.2642C21.5972 19.2923 19.8346 18.5033 17.5217 18.9197C15.1047 19.3546 12.9002 20.4521 10.946 21.4249C10.8517 21.4716 10.7359 21.4376 10.682 21.3474L8.44919 17.6103C8.44215 17.5986 8.44596 17.5865 8.44909 17.5841C9.43337 16.7888 10.373 16.1894 11.3221 15.7517C13.8835 14.5706 16.2639 14.0572 18.5995 14.1818C21.5685 14.3405 23.5768 15.9928 24.4065 18.9599C24.9363 20.8541 24.5729 22.6876 23.1912 25.0907C22.4421 26.3936 21.6844 27.194 20.7345 27.6861C20.5773 27.7676 20.4618 27.8625 20.3395 27.963C20.2898 28.0038 20.2326 28.051 20.1622 28.105C19.9304 28.2828 19.8126 28.5719 19.854 28.8612C19.8954 29.1506 20.0899 29.3947 20.3624 29.5003C20.6701 29.6195 20.9742 29.7452 21.2683 29.8667C21.956 30.151 22.6057 30.4194 23.3072 30.6151C24.8127 31.0353 26.2401 30.6174 27.2234 29.4691C28.0121 28.5482 28.6593 27.5488 29.3073 26.5205C29.6894 25.9144 30.0487 25.2893 30.3964 24.6848C30.8176 23.9522 31.2532 23.1948 31.7195 22.49C32.8569 20.7716 34.5351 19.8889 37.0012 19.7117C39.9184 19.5018 42.0404 20.7631 43.8827 23.8004C45.5061 26.4768 46.1641 29.6801 45.8939 33.5928Z" fill="#F08A6B"/>
<path d="M43.8755 10.3741C43.3963 9.66804 42.8517 9.01325 42.3249 8.38005C42.1819 8.20827 42.039 8.03639 41.8975 7.86374C41.3957 7.25143 41.0642 6.84703 40.5088 6.76657C39.9511 6.6861 39.5293 6.98161 38.8918 7.42946L38.7865 7.50329C38.5734 7.6526 38.3608 7.80417 38.1478 7.95573C37.1866 8.64059 36.1927 9.3488 35.1583 9.83786C32.0627 11.3011 29.2933 10.9438 26.6915 8.74528C25.669 7.88112 24.8797 6.98932 24.2785 6.01881C23.9982 5.56647 23.4832 5.37516 22.9973 5.54313C22.4312 5.73873 22.0746 6.36901 22.1493 7.04196C22.5098 10.2873 24.0481 12.9921 26.7213 15.0812C28.475 16.4517 30.5289 17.1263 32.9676 17.1262C33.4531 17.1262 33.9542 17.0994 34.4711 17.0461C37.7904 16.7035 40.8041 15.4523 43.4286 13.3273C44.6257 12.3581 44.7344 11.6405 43.8755 10.3741ZM42.4107 12.071C40.0006 14.0224 37.3491 15.1238 34.3047 15.438C31.5918 15.718 29.4985 15.1998 27.7167 13.8074C25.8097 12.3171 24.5971 10.5405 24.0391 8.40593C24.5099 8.94763 25.0437 9.4696 25.6477 9.98005C28.6969 12.5569 32.2247 13.0128 35.849 11.2995C37.0134 10.7489 38.067 9.99831 39.0858 9.27243C39.2954 9.12311 39.5046 8.97409 39.7142 8.82721L39.8208 8.75251C39.9773 8.64264 40.1472 8.52321 40.2718 8.44411C40.379 8.56169 40.5231 8.73737 40.6468 8.88854C40.7909 9.06423 40.9363 9.23903 41.0818 9.41403C41.6068 10.0451 42.1026 10.6411 42.5373 11.2817C42.6997 11.5213 42.7703 11.6524 42.8008 11.7212C42.7487 11.7804 42.6393 11.8859 42.4107 12.071Z" fill="#F08A6B"/>
<path d="M36.8119 3.86508L33.3937 0.446913C32.8048 -0.141663 31.847 -0.141956 31.2581 0.446913L27.84 3.86508C27.2512 4.45385 27.2512 5.41177 27.84 6.00054L31.2581 9.41861C31.5524 9.71304 31.9391 9.86021 32.3259 9.86021C32.7125 9.86021 33.0991 9.71295 33.3938 9.41861L36.8119 6.00054C37.4006 5.41177 37.4006 4.45376 36.8119 3.86508ZM32.3259 8.19986L29.0588 4.93276L32.3259 1.66566L35.5931 4.93276L32.3259 8.19986Z" fill="#F08A6B"/>
</g>
<defs>
<clipPath id="clip0">
<rect width="50" height="50" fill="white" transform="translate(0 0.00537109)"/>
</clipPath>
</defs>
</svg>
