<svg width="51" height="51" viewBox="0 0 51 51" fill="none" xmlns="http://www.w3.org/2000/svg">
<path d="M45.1323 6.37598H41.2261V4.81348C41.2261 3.98467 40.8968 3.18982 40.3108 2.60377C39.7247 2.01772 38.9299 1.68848 38.1011 1.68848C37.2723 1.68848 36.4774 2.01772 35.8914 2.60377C35.3053 3.18982 34.9761 3.98467 34.9761 4.81348V6.37598H28.7261V4.81348C28.7261 3.98467 28.3968 3.18982 27.8108 2.60377C27.2247 2.01772 26.4299 1.68848 25.6011 1.68848C24.7723 1.68848 23.9774 2.01772 23.3914 2.60377C22.8053 3.18982 22.4761 3.98467 22.4761 4.81348V6.37598H16.2261V4.81348C16.2261 3.98467 15.8968 3.18982 15.3108 2.60377C14.7247 2.01772 13.9299 1.68848 13.1011 1.68848C12.2723 1.68848 11.4774 2.01772 10.8914 2.60377C10.3053 3.18982 9.97607 3.98467 9.97607 4.81348V6.37598H6.06982C5.03382 6.37598 4.04025 6.78753 3.30769 7.52009C2.57512 8.25265 2.16357 9.24622 2.16357 10.2822V41.5322C2.16357 42.5682 2.57512 43.5618 3.30769 44.2944C4.04025 45.0269 5.03382 45.4385 6.06982 45.4385H27.9448C28.152 45.4385 28.3507 45.3562 28.4973 45.2097C28.6438 45.0631 28.7261 44.8644 28.7261 44.6572C28.7261 44.45 28.6438 44.2513 28.4973 44.1048C28.3507 43.9583 28.152 43.876 27.9448 43.876H6.06982C5.44879 43.8741 4.85373 43.6266 4.41459 43.1875C3.97545 42.7483 3.72793 42.1533 3.72607 41.5322V17.3135H47.4761V30.5947C47.4761 30.8019 47.5584 31.0006 47.7049 31.1472C47.8514 31.2937 48.0501 31.376 48.2573 31.376C48.4645 31.376 48.6632 31.2937 48.8098 31.1472C48.9563 31.0006 49.0386 30.8019 49.0386 30.5947V10.2822C49.0386 9.24622 48.627 8.25265 47.8945 7.52009C47.1619 6.78753 46.1683 6.37598 45.1323 6.37598ZM36.5386 4.81348C36.5386 4.39908 36.7032 4.00165 36.9962 3.70862C37.2892 3.4156 37.6867 3.25098 38.1011 3.25098C38.5155 3.25098 38.9129 3.4156 39.2059 3.70862C39.499 4.00165 39.6636 4.39908 39.6636 4.81348V9.50098C39.6636 9.91538 39.499 10.3128 39.2059 10.6058C38.9129 10.8989 38.5155 11.0635 38.1011 11.0635C37.6867 11.0635 37.2892 10.8989 36.9962 10.6058C36.7032 10.3128 36.5386 9.91538 36.5386 9.50098V4.81348ZM24.0386 4.81348C24.0386 4.39908 24.2032 4.00165 24.4962 3.70862C24.7892 3.4156 25.1867 3.25098 25.6011 3.25098C26.0155 3.25098 26.4129 3.4156 26.7059 3.70862C26.999 4.00165 27.1636 4.39908 27.1636 4.81348V9.50098C27.1636 9.91538 26.999 10.3128 26.7059 10.6058C26.4129 10.8989 26.0155 11.0635 25.6011 11.0635C25.1867 11.0635 24.7892 10.8989 24.4962 10.6058C24.2032 10.3128 24.0386 9.91538 24.0386 9.50098V4.81348ZM11.5386 4.81348C11.5386 4.39908 11.7032 4.00165 11.9962 3.70862C12.2892 3.4156 12.6867 3.25098 13.1011 3.25098C13.5155 3.25098 13.9129 3.4156 14.2059 3.70862C14.499 4.00165 14.6636 4.39908 14.6636 4.81348V9.50098C14.6636 9.91538 14.499 10.3128 14.2059 10.6058C13.9129 10.8989 13.5155 11.0635 13.1011 11.0635C12.6867 11.0635 12.2892 10.8989 11.9962 10.6058C11.7032 10.3128 11.5386 9.91538 11.5386 9.50098V4.81348ZM47.4761 15.751H3.72607V10.2822C3.72793 9.6612 3.97545 9.06613 4.41459 8.62699C4.85373 8.18786 5.44879 7.94033 6.06982 7.93848H9.97607V9.50098C9.97607 10.3298 10.3053 11.1246 10.8914 11.7107C11.4774 12.2967 12.2723 12.626 13.1011 12.626C13.9299 12.626 14.7247 12.2967 15.3108 11.7107C15.8968 11.1246 16.2261 10.3298 16.2261 9.50098V7.93848H22.4761V9.50098C22.4761 10.3298 22.8053 11.1246 23.3914 11.7107C23.9774 12.2967 24.7723 12.626 25.6011 12.626C26.4299 12.626 27.2247 12.2967 27.8108 11.7107C28.3968 11.1246 28.7261 10.3298 28.7261 9.50098V7.93848H34.9761V9.50098C34.9761 10.3298 35.3053 11.1246 35.8914 11.7107C36.4774 12.2967 37.2723 12.626 38.1011 12.626C38.9299 12.626 39.7247 12.2967 40.3108 11.7107C40.8968 11.1246 41.2261 10.3298 41.2261 9.50098V7.93848H45.1323C45.7534 7.94033 46.3484 8.18786 46.7876 8.62699C47.2267 9.06613 47.4742 9.6612 47.4761 10.2822V15.751Z" fill="#F08A6B"/>
<path d="M24.0386 22.7822C24.0386 22.3678 23.874 21.9704 23.5809 21.6774C23.2879 21.3843 22.8905 21.2197 22.4761 21.2197H19.3511C18.9367 21.2197 18.5392 21.3843 18.2462 21.6774C17.9532 21.9704 17.7886 22.3678 17.7886 22.7822V25.126C17.7886 25.5404 17.9532 25.9378 18.2462 26.2308C18.5392 26.5239 18.9367 26.6885 19.3511 26.6885H22.4761C22.8905 26.6885 23.2879 26.5239 23.5809 26.2308C23.874 25.9378 24.0386 25.5404 24.0386 25.126V22.7822ZM19.3511 25.126V22.7822H22.4761V25.126H19.3511Z" fill="#F08A6B"/>
<path d="M14.6636 22.7822C14.6636 22.3678 14.499 21.9704 14.2059 21.6774C13.9129 21.3843 13.5155 21.2197 13.1011 21.2197H9.97607C9.56167 21.2197 9.16425 21.3843 8.87122 21.6774C8.57819 21.9704 8.41357 22.3678 8.41357 22.7822V25.126C8.41357 25.5404 8.57819 25.9378 8.87122 26.2308C9.16425 26.5239 9.56167 26.6885 9.97607 26.6885H13.1011C13.5155 26.6885 13.9129 26.5239 14.2059 26.2308C14.499 25.9378 14.6636 25.5404 14.6636 25.126V22.7822ZM9.97607 25.126V22.7822H13.1011V25.126H9.97607Z" fill="#F08A6B"/>
<path d="M41.2261 26.6885C41.6405 26.6885 42.0379 26.5239 42.3309 26.2308C42.624 25.9378 42.7886 25.5404 42.7886 25.126V22.7822C42.7886 22.3678 42.624 21.9704 42.3309 21.6774C42.0379 21.3843 41.6405 21.2197 41.2261 21.2197H38.1011C37.6867 21.2197 37.2892 21.3843 36.9962 21.6774C36.7032 21.9704 36.5386 22.3678 36.5386 22.7822V25.126C36.5386 25.5404 36.7032 25.9378 36.9962 26.2308C37.2892 26.5239 37.6867 26.6885 38.1011 26.6885H41.2261ZM38.1011 22.7822H41.2261V25.126H38.1011V22.7822Z" fill="#F08A6B"/>
<path d="M24.0386 29.8135C24.0386 29.3991 23.874 29.0016 23.5809 28.7086C23.2879 28.4156 22.8905 28.251 22.4761 28.251H19.3511C18.9367 28.251 18.5392 28.4156 18.2462 28.7086C17.9532 29.0016 17.7886 29.3991 17.7886 29.8135V32.1572C17.7886 32.5716 17.9532 32.9691 18.2462 33.2621C18.5392 33.5551 18.9367 33.7197 19.3511 33.7197H22.4761C22.8905 33.7197 23.2879 33.5551 23.5809 33.2621C23.874 32.9691 24.0386 32.5716 24.0386 32.1572V29.8135ZM19.3511 32.1572V29.8135H22.4761V32.1572H19.3511Z" fill="#F08A6B"/>
<path d="M14.6636 29.8135C14.6636 29.3991 14.499 29.0016 14.2059 28.7086C13.9129 28.4156 13.5155 28.251 13.1011 28.251H9.97607C9.56167 28.251 9.16425 28.4156 8.87122 28.7086C8.57819 29.0016 8.41357 29.3991 8.41357 29.8135V32.1572C8.41357 32.5716 8.57819 32.9691 8.87122 33.2621C9.16425 33.5551 9.56167 33.7197 9.97607 33.7197H13.1011C13.5155 33.7197 13.9129 33.5551 14.2059 33.2621C14.499 32.9691 14.6636 32.5716 14.6636 32.1572V29.8135ZM9.97607 32.1572V29.8135H13.1011V32.1572H9.97607Z" fill="#F08A6B"/>
<path d="M22.4761 35.2822H19.3511C18.9367 35.2822 18.5392 35.4468 18.2462 35.7399C17.9532 36.0329 17.7886 36.4303 17.7886 36.8447V39.1885C17.7886 39.6029 17.9532 40.0003 18.2462 40.2933C18.5392 40.5864 18.9367 40.751 19.3511 40.751H22.4761C22.8905 40.751 23.2879 40.5864 23.5809 40.2933C23.874 40.0003 24.0386 39.6029 24.0386 39.1885V36.8447C24.0386 36.4303 23.874 36.0329 23.5809 35.7399C23.2879 35.4468 22.8905 35.2822 22.4761 35.2822ZM19.3511 39.1885V36.8447H22.4761V39.1885H19.3511Z" fill="#F08A6B"/>
<path d="M28.7261 26.6885H31.8511C32.2655 26.6885 32.6629 26.5239 32.9559 26.2308C33.249 25.9378 33.4136 25.5404 33.4136 25.126V22.7822C33.4136 22.3678 33.249 21.9704 32.9559 21.6774C32.6629 21.3843 32.2655 21.2197 31.8511 21.2197H28.7261C28.3117 21.2197 27.9142 21.3843 27.6212 21.6774C27.3282 21.9704 27.1636 22.3678 27.1636 22.7822V25.126C27.1636 25.5404 27.3282 25.9378 27.6212 26.2308C27.9142 26.5239 28.3117 26.6885 28.7261 26.6885ZM28.7261 22.7822H31.8511V25.126H28.7261V22.7822Z" fill="#F08A6B"/>
<path d="M27.1636 32.1572C27.1636 32.5716 27.3282 32.9691 27.6212 33.2621C27.9142 33.5551 28.3117 33.7197 28.7261 33.7197C28.9333 33.7197 29.132 33.6374 29.2785 33.4909C29.425 33.3444 29.5073 33.1457 29.5073 32.9385C29.5073 32.7313 29.425 32.5326 29.2785 32.386C29.132 32.2395 28.9333 32.1572 28.7261 32.1572V29.8135H31.8511C32.0583 29.8135 32.257 29.7312 32.4035 29.5847C32.55 29.4381 32.6323 29.2394 32.6323 29.0322C32.6323 28.825 32.55 28.6263 32.4035 28.4798C32.257 28.3333 32.0583 28.251 31.8511 28.251H28.7261C28.3117 28.251 27.9142 28.4156 27.6212 28.7086C27.3282 29.0016 27.1636 29.3991 27.1636 29.8135V32.1572Z" fill="#F08A6B"/>
<path d="M13.1011 35.2822H9.97607C9.56167 35.2822 9.16425 35.4468 8.87122 35.7399C8.57819 36.0329 8.41357 36.4303 8.41357 36.8447V39.1885C8.41357 39.6029 8.57819 40.0003 8.87122 40.2933C9.16425 40.5864 9.56167 40.751 9.97607 40.751H13.1011C13.5155 40.751 13.9129 40.5864 14.2059 40.2933C14.499 40.0003 14.6636 39.6029 14.6636 39.1885V36.8447C14.6636 36.4303 14.499 36.0329 14.2059 35.7399C13.9129 35.4468 13.5155 35.2822 13.1011 35.2822ZM9.97607 39.1885V36.8447H13.1011V39.1885H9.97607Z" fill="#F08A6B"/>
<path d="M38.8823 28.251C36.8736 28.251 34.91 28.8466 33.2398 29.9626C31.5696 31.0786 30.2679 32.6648 29.4992 34.5206C28.7305 36.3764 28.5293 38.4185 28.9212 40.3886C29.3131 42.3587 30.2804 44.1684 31.7008 45.5888C33.1212 47.0091 34.9308 47.9764 36.9009 48.3683C38.8711 48.7602 40.9131 48.5591 42.7689 47.7904C44.6248 47.0217 46.2109 45.7199 47.3269 44.0497C48.4429 42.3795 49.0386 40.4159 49.0386 38.4072C49.0355 35.7146 47.9644 33.1331 46.0604 31.2291C44.1565 29.3251 41.575 28.2541 38.8823 28.251ZM38.8823 47.001C37.1826 47.001 35.5211 46.497 34.1079 45.5527C32.6947 44.6084 31.5932 43.2662 30.9427 41.6959C30.2923 40.1256 30.1221 38.3977 30.4537 36.7307C30.7853 35.0636 31.6038 33.5324 32.8056 32.3305C34.0075 31.1287 35.5387 30.3102 37.2058 29.9786C38.8728 29.647 40.6007 29.8172 42.171 30.4676C43.7413 31.1181 45.0835 32.2196 46.0278 33.6328C46.9721 35.046 47.4761 36.7075 47.4761 38.4072C47.4734 40.6856 46.5671 42.8699 44.9561 44.4809C43.345 46.092 41.1607 46.9983 38.8823 47.001Z" fill="#F08A6B"/>
<path d="M43.3966 35.1324L37.3201 41.209L34.5584 38.4465C34.411 38.3041 34.2137 38.2254 34.0088 38.2272C33.804 38.229 33.608 38.3111 33.4632 38.456C33.3183 38.6008 33.2362 38.7968 33.2344 39.0016C33.2326 39.2064 33.3114 39.4038 33.4537 39.5511L36.7677 42.866C36.9142 43.0124 37.1129 43.0947 37.3201 43.0947C37.5272 43.0947 37.7259 43.0124 37.8724 42.866L44.5013 36.2371C44.6436 36.0897 44.7224 35.8924 44.7206 35.6875C44.7188 35.4827 44.6367 35.2868 44.4918 35.1419C44.347 34.9971 44.151 34.9149 43.9462 34.9131C43.7413 34.9113 43.544 34.9901 43.3966 35.1324Z" fill="#F08A6B"/>
</svg>
