<svg width="174" height="175" viewBox="0 0 174 175" fill="none" xmlns="http://www.w3.org/2000/svg">
<path d="M84.68 3.87368C84.8772 3.86973 85.1347 3.8591 85.4523 3.84178C85.7807 3.81329 86.0918 3.74676 86.3858 3.6422C86.6907 3.53742 86.9505 3.37324 87.1654 3.14965C87.3802 2.92607 87.4835 2.61151 87.4754 2.20599L87.4715 2.00871L85.8932 2.04029C85.9053 2.09487 85.9119 2.14956 85.913 2.20436C85.9248 2.24798 85.9313 2.29719 85.9324 2.35199C85.937 2.58215 85.8913 2.76397 85.7953 2.89747C85.6992 3.03096 85.5807 3.13201 85.4395 3.20062C85.3093 3.26901 85.1731 3.31011 85.0308 3.32392C84.8885 3.33773 84.7681 3.34563 84.6694 3.3476C84.5708 3.34957 84.4447 3.34661 84.291 3.33872C84.1483 3.33061 84.005 3.2951 83.8613 3.23219C83.7284 3.16906 83.6114 3.07273 83.5101 2.94318C83.4088 2.81363 83.3559 2.63378 83.3513 2.40362C83.3502 2.34882 83.3492 2.2995 83.3483 2.25566C83.3582 2.20064 83.3681 2.14562 83.3779 2.0906L81.8161 2.12184L81.8201 2.31912C81.8282 2.72464 81.944 3.03481 82.1676 3.24963C82.3912 3.46444 82.6519 3.61821 82.9498 3.71093C83.2587 3.80343 83.5722 3.85746 83.8905 3.87302C84.2086 3.87763 84.4717 3.87784 84.68 3.87368ZM81.579 14.9385L81.3758 4.77855L79.8798 4.80848L80.1099 16.3165L81.606 16.2866L88.2231 5.87507L88.4286 16.1501L89.9246 16.1201L89.6945 4.61214L88.1984 4.64207L81.579 14.9385Z" fill="#F08A6B"/>
<path d="M100.051 11.135C99.8848 11.7242 99.8178 12.3866 99.8494 13.1221C99.8945 13.8501 100.079 14.5663 100.403 15.2706C100.728 15.9749 101.21 16.6215 101.85 17.2105C102.494 17.7889 103.336 18.2246 104.378 18.5176C105.083 18.7159 105.743 18.8108 106.359 18.8023C106.988 18.7862 107.57 18.6945 108.105 18.5271C108.651 18.3627 109.145 18.1385 109.589 17.8544C110.035 17.5598 110.422 17.2317 110.751 16.87C111.093 16.5008 111.378 16.1153 111.604 15.7135C111.841 15.3147 112.014 14.9206 112.124 14.5313C112.29 13.9421 112.345 13.282 112.289 12.551C112.236 11.8096 112.037 11.0837 111.692 10.3735C111.347 9.66323 110.837 9.01447 110.162 8.42719C109.5 7.83234 108.643 7.38693 107.591 7.09096C106.55 6.79795 105.603 6.7305 104.753 6.88862C103.902 7.04674 103.155 7.34181 102.511 7.77384C101.871 8.19535 101.34 8.71024 100.919 9.31851C100.509 9.92975 100.219 10.5352 100.051 11.135ZM101.597 11.5701C101.804 10.8335 102.104 10.1912 102.497 9.64312C102.903 9.08745 103.362 8.64341 103.876 8.31101C104.4 7.98156 104.964 7.77132 105.569 7.68026C106.177 7.57869 106.796 7.61669 107.427 7.79428C108.048 7.9689 108.597 8.25943 109.073 8.66585C109.562 9.06472 109.95 9.54283 110.236 10.1002C110.533 10.6605 110.715 11.2851 110.782 11.9739C110.853 12.6522 110.784 13.3597 110.577 14.0962C110.37 14.8327 110.058 15.4773 109.642 16.03C109.228 16.5722 108.749 17.0051 108.204 17.3286C107.669 17.6551 107.087 17.8662 106.459 17.9618C105.844 18.0499 105.226 18.0067 104.605 17.832C103.974 17.6544 103.424 17.3692 102.955 16.9762C102.49 16.5728 102.119 16.0938 101.843 15.5395C101.578 14.988 101.416 14.3746 101.356 13.6993C101.31 13.0163 101.39 12.3066 101.597 11.5701Z" fill="#F08A6B"/>
<path d="M123.835 13.0664L118.304 23.1582L119.616 23.8774L124.712 14.5786L129.556 17.2342L129.99 16.4413L123.835 13.0664Z" fill="#F08A6B"/>
<path d="M134.629 29.675L133.721 33.2995L134.959 34.3044L138.048 21.9904L137.41 21.4724L126.381 27.3421L126.968 27.8187L130.225 26.1005L134.629 29.675ZM134.827 28.8829L130.934 25.7229L136.263 22.9126L136.314 22.954L134.827 28.8829Z" fill="#F08A6B"/>
<path d="M144.771 44.8946L146.987 48.3754C147.381 48.9948 147.793 49.4671 148.22 49.7923C148.658 50.1116 149.088 50.3182 149.512 50.4122C149.935 50.5062 150.344 50.5056 150.738 50.4105C151.148 50.3187 151.519 50.1668 151.852 49.9549C152.378 49.6193 152.726 49.2358 152.893 48.8045C153.066 48.3824 153.135 47.9612 153.102 47.5409C153.068 47.1206 152.973 46.7263 152.816 46.3582C152.66 45.99 152.522 45.7013 152.401 45.492L152.457 45.4567C152.663 45.7803 152.917 46.0471 153.22 46.2572C153.532 46.4613 153.852 46.6079 154.182 46.6969C154.526 46.7892 154.869 46.8177 155.211 46.7823C155.561 46.7409 155.884 46.6261 156.18 46.4377C156.439 46.2728 156.667 46.0495 156.865 45.7678C157.062 45.4861 157.198 45.1591 157.273 44.7866C157.353 44.4234 157.348 44.0174 157.257 43.5685C157.181 43.123 156.991 42.6598 156.684 42.1791L154.477 38.7122L144.771 44.8946ZM146.184 45.7679L150.427 43.0653L151.399 44.5908C151.687 45.0438 151.877 45.475 151.969 45.8844C152.061 46.2937 152.073 46.6695 152.005 47.0117C151.942 47.3631 151.81 47.675 151.606 47.9475C151.409 48.2292 151.162 48.4642 150.867 48.6526C150.543 48.8587 150.218 48.9812 149.892 49.0199C149.572 49.068 149.262 49.0509 148.963 48.9686C148.664 48.8863 148.382 48.7406 148.119 48.5313C147.871 48.3255 147.653 48.0746 147.465 47.7788L146.184 45.7679ZM151.038 42.6767L154.67 40.3627L155.748 42.0546C155.977 42.4152 156.121 42.7526 156.178 43.067C156.241 43.3907 156.239 43.684 156.173 43.9472C156.113 44.2196 156 44.4605 155.834 44.6699C155.669 44.8793 155.48 45.0517 155.267 45.1871C154.999 45.3578 154.714 45.4613 154.412 45.4976C154.116 45.5431 153.823 45.5218 153.533 45.4336C153.249 45.3547 152.982 45.2199 152.73 45.0291C152.485 44.8476 152.274 44.6182 152.097 44.3409L151.038 42.6767Z" fill="#F08A6B"/>
<path d="M159.561 73.4297C158.265 72.6061 157.428 71.4509 157.05 69.9639C156.839 69.1355 156.795 68.3661 156.92 67.6558C157.044 66.9455 157.291 66.317 157.661 65.7704C158.031 65.2238 158.501 64.7592 159.071 64.3765C159.643 64.0045 160.269 63.7318 160.949 63.5587C161.671 63.3747 162.358 63.3184 163.01 63.39C163.674 63.4694 164.277 63.6608 164.818 63.964C165.359 64.2673 165.824 64.6693 166.211 65.17C166.602 65.6813 166.882 66.2715 167.052 66.9406C167.169 67.3973 167.221 67.8251 167.209 68.2239C167.201 68.6333 167.148 69.003 167.051 69.3331C166.957 69.6738 166.821 69.9628 166.644 70.2002C166.48 70.4455 166.296 70.6337 166.092 70.7649L166.392 71.9438C166.713 71.6925 166.995 71.4001 167.238 71.0668C167.484 70.744 167.671 70.3684 167.799 69.9398C167.927 69.5113 167.992 69.0312 167.992 68.4995C167.992 67.9678 167.911 67.3834 167.749 66.7461C167.514 65.8221 167.166 65.0115 166.706 64.3145C166.248 63.628 165.701 63.0775 165.064 62.663C164.437 62.2458 163.736 61.9778 162.959 61.859C162.193 61.7375 161.38 61.7863 160.519 62.0055C159.776 62.1949 159.078 62.4971 158.426 62.912C157.787 63.3349 157.255 63.8663 156.83 64.5062C156.416 65.1433 156.137 65.8929 155.995 66.7548C155.863 67.614 155.934 68.58 156.207 69.6527C156.38 70.3324 156.598 70.9216 156.861 71.4202C157.126 71.9294 157.399 72.3575 157.68 72.7045C157.974 73.0594 158.261 73.3425 158.541 73.5539C158.821 73.7653 159.058 73.9198 159.252 74.0173L159.561 73.4297Z" fill="#F08A6B"/>
<path d="M162.065 87.3108L158.704 88.9438L158.73 90.5383L170.15 84.9927L170.136 84.1709L158.551 79.4921L158.563 80.2482L161.973 81.6398L162.065 87.3108ZM162.799 86.9536L162.718 81.9401L168.296 84.2172L168.297 84.2829L162.799 86.9536Z" fill="#F08A6B"/>
<path d="M168.947 103.674L169.261 102.601L158.219 99.3613L158.015 100.055L167.023 102.698L167.004 102.762L156.378 104.938L156.295 105.222L163.966 112.887L163.948 112.95L155.003 110.325L154.582 111.761L165.625 115.001L165.944 113.912L157.962 106.019L157.981 105.956L168.947 103.674Z" fill="#F08A6B"/>
<path d="M149.991 128.224L146.294 127.72L145.433 129.06L157.993 130.773L158.437 130.083L151.398 119.779L150.99 120.415L153.053 123.459L149.991 128.224ZM150.799 128.333L153.506 124.121L156.881 129.102L156.846 129.157L150.799 128.333Z" fill="#F08A6B"/>
<path d="M142.54 139.981C142.282 140.123 142.016 140.287 141.741 140.475C141.474 140.67 141.199 140.904 140.915 141.176C140.433 141.637 140.072 142.113 139.829 142.603C139.587 143.092 139.453 143.569 139.428 144.032C139.402 144.511 139.47 144.961 139.631 145.381C139.8 145.81 140.05 146.198 140.383 146.546C140.701 146.877 141.058 147.14 141.456 147.334C141.862 147.536 142.285 147.637 142.725 147.639C143.165 147.656 143.619 147.569 144.087 147.378C144.555 147.187 145.018 146.872 145.475 146.434L148.245 143.779L140.305 135.492L139.228 136.525L142.54 139.981ZM146.669 144.29L145.426 145.482C145.095 145.799 144.746 146.02 144.38 146.144C144.014 146.267 143.654 146.31 143.299 146.271C142.952 146.241 142.622 146.141 142.308 145.972C141.995 145.818 141.724 145.623 141.498 145.386C141.278 145.158 141.095 144.887 140.947 144.575C140.799 144.278 140.716 143.955 140.701 143.607C140.685 143.259 140.747 142.904 140.886 142.544C141.025 142.183 141.272 141.833 141.627 141.493C141.871 141.258 142.104 141.051 142.324 140.87C142.552 140.697 142.779 140.562 143.005 140.467L146.669 144.29Z" fill="#F08A6B"/>
<path d="M134.911 155.612L128.813 145.83L122.497 149.769L122.976 150.538L128.021 147.392L130.556 151.458L126.224 154.16L126.642 154.831L130.974 152.129L133.161 155.637L128.116 158.783L128.596 159.551L134.911 155.612Z" fill="#F08A6B"/>
<path d="M112.38 160.099C112.3 159.849 112.178 159.629 112.014 159.439C111.85 159.25 111.657 159.099 111.437 158.985C111.217 158.871 110.982 158.803 110.732 158.779C110.473 158.758 110.212 158.79 109.951 158.873C109.701 158.953 109.481 159.075 109.292 159.239C109.092 159.407 108.935 159.6 108.822 159.821C108.708 160.041 108.639 160.276 108.615 160.525C108.581 160.778 108.604 161.03 108.684 161.28C108.767 161.541 108.898 161.77 109.076 161.966C109.243 162.166 109.437 162.322 109.657 162.436C109.878 162.55 110.118 162.617 110.377 162.637C110.627 162.661 110.877 162.633 111.127 162.553C111.388 162.47 111.618 162.344 111.818 162.177C112.007 162.013 112.159 161.821 112.272 161.6C112.386 161.38 112.453 161.14 112.474 160.88C112.494 160.62 112.463 160.36 112.38 160.099Z" fill="#F08A6B"/>
<path d="M91.7276 171.152C91.5303 171.158 91.2729 171.171 90.9554 171.192C90.6272 171.223 90.3167 171.293 90.0237 171.401C89.7198 171.508 89.4615 171.675 89.2489 171.901C89.0363 172.127 88.936 172.442 88.9482 172.848L88.9541 173.045L90.5324 172.998C90.5198 172.943 90.5126 172.889 90.511 172.834C90.4987 172.79 90.4918 172.741 90.4901 172.687C90.4832 172.456 90.5271 172.274 90.6218 172.14C90.7165 172.005 90.8341 171.903 90.9746 171.833C91.1042 171.763 91.24 171.721 91.3822 171.705C91.5243 171.69 91.6447 171.681 91.7433 171.678C91.842 171.675 91.9682 171.677 92.122 171.683C92.2648 171.69 92.4084 171.724 92.5529 171.785C92.6863 171.847 92.8044 171.942 92.907 172.071C93.0096 172.2 93.0643 172.379 93.0712 172.609C93.0728 172.664 93.0743 172.713 93.0756 172.757C93.0663 172.812 93.057 172.867 93.0477 172.922L94.6095 172.876L94.6036 172.678C94.5914 172.273 94.4724 171.964 94.2467 171.751C94.0209 171.538 93.7586 171.387 93.4597 171.297C93.1498 171.208 92.8357 171.157 92.5172 171.145C92.199 171.143 91.9358 171.146 91.7276 171.152ZM94.7186 160.054L95.0233 170.214L96.5193 170.169L96.1742 158.661L94.6781 158.706L88.1637 169.186L87.8555 158.911L86.3595 158.956L86.7047 170.464L88.2007 170.419L94.7186 160.054Z" fill="#F08A6B"/>
<path d="M76.637 164.361C76.7858 163.766 76.8335 163.1 76.7802 162.363C76.7137 161.635 76.5076 160.923 76.1619 160.226C75.8162 159.53 75.3137 158.896 74.6544 158.324C73.9925 157.763 73.1352 157.351 72.0825 157.088C71.3701 156.91 70.7056 156.835 70.0889 156.861C69.4589 156.896 68.8781 157.005 68.3465 157.188C67.8043 157.369 67.3152 157.608 66.8793 157.906C66.4408 158.214 66.0621 158.555 65.7431 158.927C65.4109 159.307 65.1372 159.702 64.922 160.111C64.6961 160.518 64.534 160.918 64.4357 161.311C64.2869 161.907 64.2511 162.57 64.3283 163.301C64.4029 164.043 64.6236 164.765 64.9905 165.466C65.3575 166.168 65.8879 166.803 66.5817 167.372C67.2623 167.949 68.1342 168.37 69.1975 168.636C70.2502 168.899 71.2005 168.939 72.0484 168.755C72.8963 168.572 73.6365 168.254 74.2691 167.802C74.899 167.361 75.4159 166.829 75.8199 166.207C76.2132 165.582 76.4856 164.967 76.637 164.361ZM75.0739 163.97C74.888 164.715 74.6063 165.367 74.2289 165.928C73.8383 166.497 73.3905 166.956 72.8855 167.304C72.3698 167.65 71.8103 167.877 71.207 167.986C70.6009 168.106 69.9789 168.086 69.3409 167.926C68.7136 167.769 68.1553 167.494 67.6662 167.101C67.1637 166.716 66.761 166.248 66.4579 165.697C66.1441 165.145 65.9433 164.524 65.8555 163.835C65.765 163.158 65.8128 162.446 65.9987 161.702C66.1847 160.958 66.4783 160.303 66.8796 159.736C67.2783 159.181 67.746 158.733 68.2829 158.392C68.8092 158.05 69.3859 157.821 70.0133 157.707C70.6273 157.6 71.2479 157.625 71.8753 157.782C72.5133 157.942 73.0728 158.211 73.554 158.591C74.0325 158.982 74.418 159.451 74.7105 159.999C74.9924 160.544 75.1732 161.154 75.253 161.829C75.3196 162.512 75.2599 163.226 75.0739 163.97Z" fill="#F08A6B"/>
<path d="M52.7236 162.924L57.9992 152.697L56.6697 152.011L51.8087 161.435L46.8999 158.902L46.4853 159.705L52.7236 162.924Z" fill="#F08A6B"/>
<path d="M41.5501 146.524L42.369 142.885L41.1093 141.913L38.3239 154.274L38.9732 154.776L49.8363 148.652L49.2389 148.191L46.0305 149.984L41.5501 146.524ZM41.3716 147.319L45.3325 150.378L40.0833 153.311L40.0313 153.271L41.3716 147.319Z" fill="#F08A6B"/>
<path d="M31.0355 131.648L28.7308 128.226C28.3206 127.616 27.8975 127.155 27.4614 126.841C27.0162 126.533 26.5806 126.337 26.1547 126.254C25.7287 126.171 25.32 126.182 24.9284 126.287C24.5215 126.39 24.1545 126.551 23.8273 126.771C23.3092 127.12 22.9721 127.513 22.8161 127.948C22.6539 128.374 22.5951 128.797 22.6396 129.217C22.6841 129.636 22.7893 130.028 22.9551 130.392C23.121 130.756 23.2667 131.041 23.3923 131.247L23.3377 131.284C23.1235 130.965 22.8624 130.705 22.5544 130.503C22.2374 130.307 21.9131 130.169 21.5814 130.088C21.2345 130.005 20.8909 129.985 20.5507 130.029C20.2014 130.079 19.8813 130.203 19.5904 130.399C19.3359 130.57 19.1136 130.799 18.9234 131.086C18.7333 131.372 18.6056 131.703 18.5405 132.077C18.4693 132.442 18.4848 132.848 18.5872 133.294C18.6744 133.738 18.8772 134.196 19.1955 134.669L21.4911 138.078L31.0355 131.648ZM29.6 130.812L25.4277 133.622L24.4177 132.122C24.1177 131.677 23.9166 131.25 23.8144 130.844C23.7122 130.437 23.6907 130.061 23.7499 129.718C23.8029 129.365 23.9276 129.049 24.1239 128.772C24.314 128.485 24.5545 128.244 24.8454 128.048C25.1636 127.834 25.4851 127.703 25.8102 127.656C26.129 127.6 26.4391 127.609 26.7404 127.683C27.0416 127.758 27.3265 127.896 27.5949 128.099C27.8481 128.298 28.0727 128.543 28.2686 128.834L29.6 130.812ZM24.8278 134.026L21.2554 136.433L20.1352 134.769C19.8964 134.414 19.7444 134.081 19.6791 133.768C19.6077 133.446 19.6018 133.153 19.6613 132.888C19.7148 132.614 19.8215 132.37 19.9816 132.157C20.1417 131.943 20.3263 131.766 20.5354 131.625C20.799 131.448 21.0811 131.337 21.3818 131.293C21.6764 131.24 21.9698 131.254 22.262 131.334C22.548 131.406 22.8191 131.534 23.0753 131.718C23.3254 131.893 23.5422 132.117 23.7259 132.39L24.8278 134.026Z" fill="#F08A6B"/>
<path d="M15.496 103.436C16.8116 104.227 17.6773 105.361 18.0929 106.838C18.3245 107.661 18.3869 108.429 18.2802 109.142C18.1735 109.855 17.9422 110.49 17.5862 111.045C17.2302 111.601 16.7721 112.077 16.212 112.474C15.649 112.86 15.0298 113.149 14.3547 113.339C13.6373 113.541 12.952 113.614 12.2988 113.559C11.6322 113.496 11.0247 113.32 10.4764 113.03C9.92802 112.74 9.45385 112.35 9.05385 111.859C8.65088 111.358 8.35587 110.775 8.16883 110.11C8.04116 109.656 7.97813 109.23 7.97971 108.831C7.97833 108.422 8.02196 108.051 8.1106 107.718C8.19627 107.375 8.32464 107.083 8.49571 106.841C8.65327 106.592 8.83243 106.399 9.0332 106.263L8.70365 105.092C8.38949 105.351 8.11506 105.65 7.88036 105.99C7.6427 106.319 7.46505 106.699 7.34742 107.13C7.22978 107.562 7.17743 108.044 7.19037 108.575C7.20331 109.107 7.29885 109.689 7.47699 110.322C7.73528 111.24 8.10319 112.041 8.5807 112.727C9.05524 113.402 9.61614 113.938 10.2634 114.337C10.9001 114.738 11.6082 114.989 12.3876 115.088C13.1565 115.19 13.9682 115.121 14.8227 114.881C15.5612 114.673 16.2512 114.353 16.8928 113.922C17.5208 113.483 18.0393 112.939 18.4484 112.289C18.8469 111.641 19.1066 110.885 19.2274 110.02C19.3377 109.158 19.243 108.194 18.9431 107.128C18.7531 106.453 18.5206 105.869 18.2455 105.378C17.9675 104.875 17.6839 104.454 17.3947 104.114C17.092 103.767 16.798 103.491 16.5128 103.286C16.2276 103.082 15.9865 102.934 15.7897 102.841L15.496 103.436Z" fill="#F08A6B"/>
<path d="M12.6427 89.4156L15.983 87.7417L15.9377 86.1476L4.58676 91.8323L4.61014 92.654L16.2519 97.1908L16.2304 96.4349L12.804 95.0851L12.6427 89.4156ZM11.913 89.7818L12.0556 94.7939L6.45021 92.5852L6.44834 92.5194L11.913 89.7818Z" fill="#F08A6B"/>
<path d="M5.34967 73.498L5.06283 74.5785L16.1853 77.5323L16.3709 76.8332L7.29814 74.4237L7.31501 74.3601L17.8819 71.9103L17.9578 71.6243L10.0909 64.16L10.1077 64.0964L19.1169 66.489L19.5008 65.0431L8.37831 62.0892L8.08726 63.1856L16.27 70.8699L16.2531 70.9335L5.34967 73.498Z" fill="#F08A6B"/>
<path d="M23.686 48.3942L27.3986 48.8124L28.2295 47.4513L15.6157 46.0273L15.1874 46.7288L22.4728 56.8805L22.8668 56.2351L20.7305 53.2351L23.686 48.3942ZM22.8747 48.3032L20.2619 52.5829L16.7673 47.6745L16.8016 47.6184L22.8747 48.3032Z" fill="#F08A6B"/>
<path d="M30.8045 36.426C31.0597 36.2778 31.3225 36.1063 31.593 35.9116C31.8557 35.7091 32.1261 35.4678 32.404 35.1878C32.875 34.7133 33.2258 34.2276 33.4564 33.7307C33.6871 33.2338 33.8093 32.7528 33.8231 32.2877C33.8368 31.8071 33.7577 31.3579 33.5857 30.9399C33.4059 30.5143 33.1449 30.1316 32.8027 29.7918C32.476 29.4675 32.1109 29.2131 31.7073 29.0285C31.2958 28.8363 30.8693 28.7448 30.4276 28.7542C29.9859 28.7481 29.5329 28.8466 29.0687 29.0498C28.6045 29.2531 28.1485 29.5803 27.7007 30.0314L24.9908 32.7619L33.1571 40.8702L34.211 39.8083L30.8045 36.426ZM26.558 32.2097L27.774 30.9845C28.0982 30.6578 28.4422 30.4279 28.806 30.2948C29.1697 30.1617 29.5298 30.11 29.8864 30.1397C30.2352 30.1617 30.5687 30.2534 30.8871 30.415C31.2053 30.5611 31.4811 30.75 31.7144 30.9817C31.94 31.2056 32.1308 31.4723 32.2869 31.7818C32.443 32.0757 32.5333 32.3971 32.5578 32.7458C32.5823 33.0944 32.5294 33.4512 32.399 33.8159C32.2686 34.1807 32.0297 34.5381 31.6822 34.8882C31.4429 35.1293 31.2151 35.3433 30.9988 35.5301C30.7747 35.7092 30.5505 35.8495 30.3262 35.9511L26.558 32.2097Z" fill="#F08A6B"/>
<path d="M38.1702 20.7209L44.4825 30.3432L50.695 26.2662L50.1991 25.5102L45.2373 28.7664L42.6132 24.7662L46.874 21.97L46.4412 21.3102L42.1803 24.1064L39.9169 20.6561L44.8787 17.3999L44.3828 16.6439L38.1702 20.7209Z" fill="#F08A6B"/>
<path d="M60.4797 15.649C60.5661 15.8975 60.6936 16.1142 60.8624 16.2992C61.0312 16.4841 61.2272 16.6306 61.4504 16.7386C61.6736 16.8466 61.9101 16.9094 62.1599 16.9269C62.42 16.9409 62.6795 16.9028 62.9383 16.8128C63.1867 16.7264 63.4034 16.5987 63.5884 16.4299C63.7837 16.2576 63.9354 16.0597 64.0434 15.8365C64.1514 15.6132 64.2142 15.3767 64.2318 15.1269C64.2597 14.8735 64.2305 14.6226 64.1441 14.3741C64.0541 14.1153 63.9177 13.8901 63.735 13.6983C63.5626 13.503 63.3648 13.3513 63.1416 13.2433C62.9184 13.1353 62.6767 13.0744 62.4166 13.0604C62.1668 13.0429 61.9177 13.0773 61.6692 13.1638C61.4104 13.2538 61.1834 13.385 60.9881 13.5574C60.8031 13.7262 60.6566 13.9222 60.5486 14.1455C60.4405 14.3687 60.3796 14.6104 60.3656 14.8706C60.3516 15.1307 60.3897 15.3902 60.4797 15.649Z" fill="#F08A6B"/>
</svg>
