<svg width="23" height="15" viewBox="0 0 23 15" fill="none" xmlns="http://www.w3.org/2000/svg">
<path opacity="0.7" d="M19.9314 10.0876L19.9195 10.0757C19.7326 9.88992 19.16 9.2898 18.9669 9.02751C18.7402 8.70029 18.7925 8.48586 18.9624 8.16457C19.177 7.75855 19.6072 7.13577 20.0624 6.47628C21.5203 4.36471 22.4616 2.9029 22.2678 1.86457L22.1634 1.30996L16.7791 1.31248C16.7603 1.36716 16.4793 2.69639 15.2936 4.95979C14.4338 6.60095 13.8699 7.11652 13.6713 7.20754L13.6406 7.19747C13.5759 7.11148 13.463 6.87942 13.4166 6.28128C13.3681 5.65472 13.411 4.89611 13.4526 4.16251C13.5012 3.30227 13.5432 2.55931 13.4428 2.02773L13.2792 1.16173C13.0816 1.12773 12.3582 0.827128 10.3425 0.804282C8.59737 0.785034 8.08471 1.05649 7.83298 1.29575L7.00027 2.08709L8.05281 2.46846C8.45338 2.61364 8.58634 2.78112 8.69542 3.61132C8.76658 4.15244 8.80383 5.06179 8.72699 5.87364C8.61658 7.03773 8.35181 7.25432 8.33812 7.26583C8.29251 7.2491 7.90581 7.06687 7.23446 5.53833C6.76875 4.47822 6.3605 3.22419 6.06216 2.30854C5.72072 1.25995 5.78219 1.4832 5.60897 0.987772L0.399902 0.987592L0.736995 1.92663C2.14233 5.84522 3.43173 8.90537 5.15729 11.1033C7.06375 13.5317 9.43308 14.8031 12.6246 14.8031H13.2661V14.1123C13.2661 13.4665 13.3157 13.0015 13.4221 12.6489C13.487 12.4341 13.5734 12.2566 13.6641 12.0704C13.7988 11.7962 13.9304 11.6788 14.0022 11.6613C14.0674 11.6453 14.1819 11.6968 14.3089 11.7988C14.6734 12.0914 14.9627 12.476 15.2691 12.8833C15.7111 13.471 16.1681 14.0785 16.8932 14.4763C17.2894 14.6936 18.0158 14.8033 18.4155 14.8033C18.5212 14.8033 22.2899 14.8031 22.2946 14.8031L22.267 14.0839C22.2259 13.0085 21.44 11.6638 19.9314 10.0876ZM18.4404 13.4216H18.43C18.1544 13.4264 17.6284 13.3291 17.4754 13.2453C16.9933 12.9808 16.6564 12.5327 16.266 12.0139C15.9234 11.5582 15.5691 11.0871 15.0758 10.6912C14.6769 10.3708 14.3146 10.277 14.0269 10.277C13.912 10.277 13.8088 10.292 13.7202 10.3136C13.3863 10.3945 12.9087 10.6532 12.5291 11.4266C12.422 11.6466 12.3005 11.8957 12.2022 12.2217C12.0991 12.5628 12.0349 12.9418 12.0044 13.4029C9.59929 13.2557 7.72256 12.231 6.13699 10.2114C4.66284 8.33349 3.50306 5.70688 2.27479 2.36862C2.36366 2.36862 4.59051 2.36898 4.72197 2.36898C4.76223 2.49077 4.80566 2.62425 4.85176 2.76565C5.17332 3.75343 5.61381 5.10604 6.13282 6.25951C6.87599 7.91128 7.55469 8.64794 8.33327 8.64794C8.72198 8.64794 9.0706 8.47057 9.34138 8.13471C9.72741 7.65602 9.95158 6.86593 10.0268 5.71912C10.0861 4.8148 10.0309 3.91408 9.96578 3.41776C9.912 3.0094 9.83532 2.58072 9.64824 2.19665C10.4455 2.15797 11.5131 2.21913 12.1895 2.32365C12.2509 2.68416 12.2108 3.39275 12.1721 4.07832C12.0784 5.73441 11.9817 7.44338 12.7957 8.243C12.9388 8.38368 13.0907 8.45905 13.095 8.46211L13.5093 8.59901C13.6691 8.54594 14.595 9.0518 16.3483 5.75671C16.9101 4.70093 17.4331 3.48432 17.7147 2.68973C18.3679 2.68829 20.5931 2.69099 20.8545 2.69135C20.4841 3.56905 19.6065 4.82092 19.0329 5.65184C18.5327 6.37608 18.1009 7.00157 17.8475 7.4808C17.3768 8.37109 17.456 9.16459 17.9463 9.86455L17.9539 9.87535C18.2276 10.2504 18.9032 10.9448 19.0434 11.0848C20.0587 12.1463 20.548 12.9089 20.7808 13.4214H18.4404V13.4216Z" fill="#34363E"/>
</svg>
