<svg width="15" height="15" viewBox="0 0 15 15" fill="none" xmlns="http://www.w3.org/2000/svg">
<g clip-path="url(#clip0)">
<path d="M3.62789 13.9296C4.78683 14.627 6.11195 14.9946 7.47345 14.9946C11.5992 14.9946 15 11.628 15 7.49725C15 3.37132 11.604 0 7.47345 0C3.35552 0 0.00537873 3.3633 0.00537873 7.49725C0.00537873 8.87695 0.373077 10.2121 1.07037 11.372L0 15L3.62789 13.9296ZM0.884056 7.49725C0.884056 3.84773 3.84007 0.878563 7.47345 0.878563C11.1391 0.878563 14.1214 3.84773 14.1214 7.49725C14.1214 11.1469 11.1391 14.1159 7.47345 14.1159C6.21208 14.1159 4.98631 13.7587 3.92899 13.0825L3.76007 12.9746L1.29948 13.7006L2.02538 11.2399L1.91746 11.0711C1.24134 10.0136 0.884056 8.77785 0.884056 7.49725V7.49725Z" fill="#34363E"/>
<path d="M3.65141 6.11582C3.79652 6.87789 4.22727 8.34364 5.48143 9.5978C6.73559 10.852 8.20135 11.2828 8.96353 11.4279C9.83625 11.5941 11.117 11.6192 11.7428 10.9933L12.0918 10.6444C12.2679 10.4682 12.3649 10.234 12.3649 9.98484C12.3649 9.7357 12.2679 9.50156 12.0918 9.32543L10.6964 7.93006C10.5202 7.75382 10.286 7.65688 10.0369 7.65688C9.78773 7.65688 9.55358 7.75382 9.37735 7.93006L9.02853 8.27887C8.81544 8.49196 8.41318 8.49288 8.19849 8.2815L6.80666 6.83131C6.8046 6.82913 6.80254 6.82696 6.80036 6.8249C6.58693 6.61147 6.58693 6.26414 6.80036 6.05071L7.14918 5.70189C7.51379 5.33728 7.51379 4.74734 7.14918 4.38284L5.7538 2.98747C5.39022 2.62389 4.79856 2.62389 4.43487 2.98747L4.08605 3.3364V3.33628C3.58652 3.83593 3.42001 4.90092 3.65141 6.11582V6.11582ZM4.70735 3.9577C5.07357 3.59984 5.054 3.59297 5.09439 3.59297C5.10824 3.59297 5.12209 3.59824 5.13262 3.60877C6.60295 5.087 6.5439 5.00014 6.5439 5.04248C6.5439 5.05725 6.53852 5.07018 6.52811 5.08071L6.17918 5.42952C5.62357 5.98513 5.62139 6.88452 6.17563 7.44265L7.56826 8.89376C7.57044 8.89582 7.5725 8.898 7.57467 8.90017C8.13017 9.45567 9.0925 9.4575 9.64983 8.90017L9.99864 8.55135C10.0197 8.5303 10.054 8.5303 10.0751 8.55135C11.5454 10.0295 11.4864 9.94261 11.4864 9.98496C11.4864 9.99983 11.481 10.0127 11.4706 10.0232L11.1217 10.372C10.8826 10.6111 10.1211 10.7541 9.12786 10.5649C8.46502 10.4386 7.19049 10.0644 6.10273 8.97662C5.01497 7.88886 4.64075 6.61433 4.51452 5.95149C4.32524 4.95825 4.46829 4.19665 4.70735 3.9577V3.9577Z" fill="#34363E"/>
</g>
<defs>
<clipPath id="clip0">
<rect width="15" height="15" fill="white"/>
</clipPath>
</defs>
</svg>
